<?xml version="1.0" encoding="utf-8"?>
<!-- Generator: Adobe Illustrator 21.0.0, SVG Export Plug-In . SVG Version: 6.00 Build 0)  -->
<svg version="1.1" id="图层_1" xmlns="http://www.w3.org/2000/svg" xmlns:xlink="http://www.w3.org/1999/xlink" x="0px" y="0px"
	 viewBox="0 0 37 37" style="enable-background:new 0 0 37 37;" xml:space="preserve">
<g>
	<path d="M18.5,0C8.3,0,0,8.3,0,18.5C0,28.7,8.3,37,18.5,37C28.7,37,37,28.7,37,18.5C37,8.3,28.7,0,18.5,0L18.5,0z M29.7,29.7
		c-1.5,1.5-3.2,2.6-5,3.4c-2,0.8-4,1.2-6.2,1.2c-2.1,0-4.2-0.4-6.2-1.2c-1.9-0.8-3.6-1.9-5-3.4c-1.5-1.5-2.6-3.2-3.4-5
		c-0.8-2-1.2-4-1.2-6.2c0-2.1,0.4-4.2,1.2-6.2c0.8-1.9,1.9-3.6,3.4-5c1.5-1.5,3.2-2.6,5-3.4c2-0.8,4-1.2,6.2-1.2
		c2.1,0,4.2,0.4,6.2,1.2c1.9,0.8,3.6,1.9,5,3.4c1.5,1.5,2.6,3.2,3.4,5c0.8,2,1.2,4,1.2,6.2c0,2.1-0.4,4.2-1.2,6.2
		C32.3,26.6,31.2,28.3,29.7,29.7L29.7,29.7z M29.7,29.7"/>
	<path d="M26.6,12.3L15.9,23l-5.5-5.5c-0.5-0.5-1.4-0.5-1.9,0c-0.5,0.5-0.5,1.4,0,1.9l6.4,6.4c0.3,0.3,0.6,0.4,0.9,0.4
		c0.3,0,0.7-0.1,0.9-0.4l11.6-11.6c0.5-0.5,0.5-1.4,0-1.9C27.9,11.8,27.1,11.8,26.6,12.3L26.6,12.3z M26.6,12.3"/>
</g>
</svg>
