<?xml version="1.0" encoding="utf-8"?>
<!-- Generator: Adobe Illustrator 21.0.0, SVG Export Plug-In . SVG Version: 6.00 Build 0)  -->
<svg version="1.1" id="图层_1" xmlns="http://www.w3.org/2000/svg" xmlns:xlink="http://www.w3.org/1999/xlink" x="0px" y="0px"
	 viewBox="0 0 36 48" style="enable-background:new 0 0 36 48;" xml:space="preserve">
<g>
	<path d="M36,17.5C36,7.8,27.9,0,18,0C8.1,0,0,7.8,0,17.5c0,3.2,0.9,6.2,2.4,8.7h0L18,48l15.6-21.8h0C35.1,23.6,36,20.6,36,17.5
		 M18,26.2c-5,0-9-3.9-9-8.7c0-4.8,4-8.7,9-8.7c5,0,9,3.9,9,8.7C27,22.3,23,26.2,18,26.2"/>
</g>
</svg>
