<?xml version="1.0" encoding="utf-8"?>
<!-- Generator: Adobe Illustrator 21.0.0, SVG Export Plug-In . SVG Version: 6.00 Build 0)  -->
<svg version="1.1" id="图层_1" xmlns="http://www.w3.org/2000/svg" xmlns:xlink="http://www.w3.org/1999/xlink" x="0px" y="0px"
	 viewBox="0 0 37 35" style="enable-background:new 0 0 37 35;" xml:space="preserve">
<style type="text/css">
	.st0{clip-path:url(#SVGID_2_);}
</style>
<g>
	<g>
		<defs>
			<rect id="SVGID_1_" width="37" height="35"/>
		</defs>
		<clipPath id="SVGID_2_">
			<use xlink:href="#SVGID_1_"  style="overflow:visible;"/>
		</clipPath>
		<path class="st0" d="M18.5,0c-0.5,0-0.8,0.1-1.1,0.4c-0.3,0.3-0.5,0.6-0.6,1l-4.2,9.9l-11.4,1c-0.3,0.1-0.5,0.2-0.7,0.4
			C0.2,13,0.1,13.3,0,13.6c-0.1,0.3,0,0.7,0.2,1C0.5,15,0.7,15.3,1,15.6l0.4,0.3l0.9,0.8c0.4,0.3,0.8,0.7,1.3,1.1l1.5,1.2
			c1.2,1,2.5,2.1,3.9,3.4l-1.3,5.2c-0.2,0.7-0.3,1.3-0.5,2c-0.2,0.6-0.3,1.2-0.4,1.8c-0.1,0.5-0.2,1-0.3,1.4l-0.2,0.7
			c-0.1,0.2,0,0.4,0.1,0.6c0.1,0.2,0.3,0.4,0.5,0.5c0.2,0.2,0.4,0.2,0.7,0.3c0.1,0,0.1,0,0.2,0c0.2,0,0.4,0,0.6-0.1
			c0.1-0.1,0.4-0.2,0.7-0.4c0.4-0.2,0.8-0.4,1.3-0.7c0.5-0.3,1-0.6,1.6-1c0.6-0.3,1.2-0.7,1.8-1c1.4-0.8,3-1.7,4.8-2.8l9.6,5.6
			l0.5,0.2c0.2,0.1,0.4,0.1,0.5,0.1c0.4,0,0.7-0.1,1-0.2c0.3-0.2,0.4-0.5,0.3-1c0-0.1-0.1-0.3-0.1-0.7l-0.3-1.4
			c-0.1-0.5-0.2-1.2-0.3-1.8c-0.1-0.7-0.3-1.3-0.4-2c-0.3-1.6-0.7-3.4-1.1-5.3l7.6-6.9c0.3-0.4,0.6-0.7,0.8-0.9
			c0.2-0.3,0.3-0.6,0.3-0.9c0-0.4-0.1-0.6-0.3-0.8c-0.2-0.2-0.5-0.3-1-0.4l-11.4-1.1l-4.1-9.9C20.1,1.3,20,1.2,19.9,1
			c-0.1-0.1-0.2-0.3-0.3-0.4c-0.1-0.2-0.3-0.3-0.5-0.4C19,0.1,18.8,0,18.5,0"/>
	</g>
</g>
</svg>
