<?xml version="1.0" encoding="utf-8"?>
<!-- Generator: Adobe Illustrator 21.0.0, SVG Export Plug-In . SVG Version: 6.00 Build 0)  -->
<svg version="1.1" id="图层_1" xmlns="http://www.w3.org/2000/svg" xmlns:xlink="http://www.w3.org/1999/xlink" x="0px" y="0px"
	 viewBox="0 0 28 30" style="enable-background:new 0 0 28 30;" xml:space="preserve">
<style type="text/css">
	.st0{clip-path:url(#SVGID_2_);}
</style>
<g>
	<g>
		<defs>
			<rect id="SVGID_1_" width="28" height="30"/>
		</defs>
		<clipPath id="SVGID_2_">
			<use xlink:href="#SVGID_1_"  style="overflow:visible;"/>
		</clipPath>
		<path class="st0" d="M16.9,0c-1.6,0-3,1.1-3.3,2.7c0,0-0.5,2.5-0.7,3.3C12.4,7.5,11,9.1,9.9,9.6C9.1,10,6.2,10,6,10H2
			c-1.1,0-2,0.9-2,2v16c0,1.1,0.9,2,2,2h18.5c3,0,5.5-2.2,5.9-5.1l1.5-10.3c0.4-2.4-1.5-4.6-4-4.6h-4.6c0,0,0.7-2.2,1-6
			c0.2-1.9-1.2-3.7-3.2-3.9C17.1,0,17,0,16.9,0L16.9,0z M8,28v-16c1.3-0.1,2.3-0.3,2.8-0.5c1.5-0.7,3.4-2.7,4-4.8
			c0.3-0.9,0.7-3.2,0.8-3.5c0.1-0.6,0.7-1,1.4-1C17,2,17,2,17.1,2c1,0.1,1.5,1,1.4,1.8c-0.3,3.5-0.9,5.6-0.9,5.6L16.7,12H24
			c0.6,0,1.1,0.2,1.5,0.7c0.4,0.4,0.5,1,0.5,1.6l-1.5,10.3c-0.3,2-2,3.4-4,3.4L8,28L8,28z M2,28V12h4v16H2z M2,28"/>
	</g>
</g>
</svg>
