<?xml version="1.0" encoding="utf-8"?>
<!-- Generator: Adobe Illustrator 21.0.0, SVG Export Plug-In . SVG Version: 6.00 Build 0)  -->
<svg version="1.1" id="图层_1" xmlns="http://www.w3.org/2000/svg" xmlns:xlink="http://www.w3.org/1999/xlink" x="0px" y="0px"
	 viewBox="0 0 47 47" style="enable-background:new 0 0 47 47;" xml:space="preserve">
<g>
	<path d="M39.6,32c-2.2-1.7-4.1-2.6-5.9-2.6c-2.7,0-4.4,1.8-6,3.3l-0.5,0.4c-0.5,0-2.4-0.4-7.7-5.7c-6.1-6.1-5.7-7.7-5.7-7.7
		l0.4-0.4C16.7,17,20,13.7,15,7.4c-1.7-2.2-3.7-3.3-5.9-3.3C5.7,4.2,2.9,7,1.4,8.5C-3,12.9,3.5,26,12.2,34.8
		C20.7,43.2,29.5,47,34.4,47c1.8,0,3.2-0.5,4.1-1.4c1.5-1.5,4.5-4.5,4.3-8.1C42.7,35.5,41.6,33.7,39.6,32z"/>
	<path d="M39.9,7.4C29.5-3.1,20,0.6,19.6,0.8c-0.8,0.3-1.2,1.2-0.8,2c0.3,0.8,1.2,1.2,2,0.8c0.1,0,8-3.1,17,5.9
		c8.3,8.3,5.9,16.7,5.8,17.1c-0.3,0.8,0.2,1.7,1,1.9c0.2,0,0.3,0.1,0.5,0.1c0.7,0,1.3-0.4,1.5-1.1C46.6,27.1,49.6,17,39.9,7.4z"/>
	<path d="M36.5,22c0.1,0.8,0.8,1.3,1.5,1.3c0.1,0,0.2,0,0.2,0c0.8-0.1,1.4-0.9,1.3-1.7c-2-13.2-13.9-13.9-14-13.9
		c-0.8,0-1.6,0.6-1.6,1.5c0,0.8,0.6,1.6,1.5,1.6C25.5,10.7,34.9,11.2,36.5,22z"/>
</g>
</svg>
