<?xml version="1.0" encoding="utf-8"?>
<!-- Generator: Adobe Illustrator 21.0.0, SVG Export Plug-In . SVG Version: 6.00 Build 0)  -->
<svg version="1.1" id="图层_1" xmlns="http://www.w3.org/2000/svg" xmlns:xlink="http://www.w3.org/1999/xlink" x="0px" y="0px"
	 viewBox="0 0 44 44" style="enable-background:new 0 0 44 44;" xml:space="preserve">
<style type="text/css">
	.st0{clip-path:url(#SVGID_2_);fill:#666767;}
</style>
<g>
	<g>
		<defs>
			<rect id="SVGID_1_" width="44" height="44"/>
		</defs>
		<clipPath id="SVGID_2_">
			<use xlink:href="#SVGID_1_"  style="overflow:visible;"/>
		</clipPath>
		<path class="st0" d="M22,0C9.8,0,0,9.8,0,22c0,12.2,9.8,22,22,22c12.2,0,22-9.8,22-22C44,9.8,34.2,0,22,0L22,0z M32.7,25.6H20.1
			c-0.3,0-0.5-0.2-0.7-0.5c-0.1-0.2-0.2-0.3-0.2-0.5V12c0-0.5,0.4-1,0.9-1c0.5,0,0.9,0.5,0.9,1v11.8h11.6c0.6,0,1.2,0.4,1.2,0.9
			C33.9,25.3,33.3,25.6,32.7,25.6L32.7,25.6z M32.7,25.6"/>
	</g>
</g>
</svg>
