<?xml version="1.0" encoding="utf-8"?>
<!-- Generator: Adobe Illustrator 21.0.0, SVG Export Plug-In . SVG Version: 6.00 Build 0)  -->
<svg version="1.1" id="图层_1" xmlns="http://www.w3.org/2000/svg" xmlns:xlink="http://www.w3.org/1999/xlink" x="0px" y="0px"
	 viewBox="0 0 23 40" style="enable-background:new 0 0 23 40;" xml:space="preserve">
<style type="text/css">
	.st0{clip-path:url(#SVGID_2_);}
</style>
<g>
	<g>
		<defs>
			<rect id="SVGID_1_" width="23" height="40"/>
		</defs>
		<clipPath id="SVGID_2_">
			<use xlink:href="#SVGID_1_"  style="overflow:visible;"/>
		</clipPath>
		<path class="st0" d="M1.4,39.9c0.4,0,0.7-0.1,1-0.4L22.5,21c0.3-0.3,0.5-0.6,0.5-1c0-0.4-0.2-0.8-0.5-1L2.4,0.4
			c-0.6-0.5-1.5-0.5-2,0.1c-0.5,0.6-0.5,1.5,0.1,2l19,17.5l-19,17.5c-0.4,0.4-0.6,1-0.4,1.6C0.3,39.6,0.8,39.9,1.4,39.9L1.4,39.9z
			 M1.4,39.9"/>
	</g>
</g>
</svg>
