<?xml version="1.0" standalone="no"?>
<!DOCTYPE svg PUBLIC "-//W3C//DTD SVG 1.1//EN" "http://www.w3.org/Graphics/SVG/1.1/DTD/svg11.dtd" >
<!--
2013-9-30: Created.
-->
<svg>
<metadata>
Created by iconfont
</metadata>
<defs>

<font id="iconfont" horiz-adv-x="1024" >
  <font-face
    font-family="iconfont"
    font-weight="500"
    font-stretch="normal"
    units-per-em="1024"
    ascent="896"
    descent="-128"
  />
    <missing-glyph />
    
    <glyph glyph-name="x" unicode="x" horiz-adv-x="1001"
d="M281 543q-27 -1 -53 -1h-83q-18 0 -36.5 -6t-32.5 -18.5t-23 -32t-9 -45.5v-76h912v41q0 16 -0.5 30t-0.5 18q0 13 -5 29t-17 29.5t-31.5 22.5t-49.5 9h-133v-97h-438v97zM955 310v-52q0 -23 0.5 -52t0.5 -58t-10.5 -47.5t-26 -30t-33 -16t-31.5 -4.5q-14 -1 -29.5 -0.5
t-29.5 0.5h-32l-45 128h-439l-44 -128h-29h-34q-20 0 -45 1q-25 0 -41 9.5t-25.5 23t-13.5 29.5t-4 30v167h911zM163 247q-12 0 -21 -8.5t-9 -21.5t9 -21.5t21 -8.5q13 0 22 8.5t9 21.5t-9 21.5t-22 8.5zM316 123q-8 -26 -14 -48q-5 -19 -10.5 -37t-7.5 -25t-3 -15t1 -14.5
t9.5 -10.5t21.5 -4h37h67h81h80h64h36q23 0 34 12t2 38q-5 13 -9.5 30.5t-9.5 34.5q-5 19 -11 39h-368zM336 498v228q0 11 2.5 23t10 21.5t20.5 15.5t34 6h188q31 0 51.5 -14.5t20.5 -52.5v-227h-327z" />
    

    
    <glyph glyph-name="weizhi" unicode="&#58888;" d="M880.64 519.168c0 200.704-163.84 364.544-368.64 364.544s-368.64-163.84-368.64-364.544c0-65.536 16.384-126.976 49.152-184.32L512-119.808l319.488 458.752c32.768 53.248 49.152 114.688 49.152 180.224m-368.64-180.224c-102.4 0-184.32 81.92-184.32 184.32s81.92 184.32 184.32 184.32 184.32-81.92 184.32-184.32-81.92-184.32-184.32-184.32"  horiz-adv-x="1024" />

    
    <glyph glyph-name="wode" unicode="&#58889;" d="M800.721805 318.556391c-67.368421-65.443609-153.984962-109.714286-256-109.714286s-188.631579 44.270677-261.774437 109.714286C113.56391 224.240602 0 99.12782 0-126.075188h1075.969925c0 225.203008-113.56391 342.616541-275.24812 444.631579z m-261.774437-15.398496c161.684211 0 288.721805 134.736842 288.721805 296.421052S698.706767 896 538.947368 896c-161.684211 0-288.721805-134.736842-288.721804-296.421053-1.924812-167.458647 132.81203-296.421053 288.721804-296.421052z m0 0"  horiz-adv-x="1081" />

    
    <glyph glyph-name="shouye" unicode="&#58890;" d="M518.023529 893.992157L0 384h140.54902v-417.631373c0-46.180392 46.180392-92.360784 94.368627-92.360784h140.54902c28.109804 0 46.180392 18.070588 46.180392 46.180392V151.090196c0 28.109804 18.070588 46.180392 46.180392 46.180392h140.54902c28.109804 0 46.180392-18.070588 46.180392-46.180392v-230.901961c0-28.109804 18.070588-46.180392 46.180392-46.180392h140.54902c46.180392 0 94.368627 46.180392 94.368627 92.360784V384h140.54902L518.023529 893.992157z m0 0"  horiz-adv-x="1084" />

    
    <glyph glyph-name="shangcheng" unicode="&#58891;" d="M995.890196-91.858824l-54.211765 963.764706c0 14.054902-14.054902 24.094118-26.10196 24.094118H108.423529C94.368627 896 80.313725 883.952941 80.313725 871.905882L28.109804-97.882353c0-8.031373 2.007843-14.054902 8.031372-18.070588 6.023529-8.031373 10.039216-10.039216 18.070589-10.039216h913.568627c16.062745 0 26.101961 10.039216 26.101961 26.101961v8.031372zM512 464.313725c-150.588235 0-242.94902 92.360784-242.94902 242.94902 0 16.062745 10.039216 26.101961 26.101961 26.101961s26.101961-10.039216 26.101961-26.101961c0-118.462745 70.27451-188.737255 188.737255-188.737255s188.737255 70.27451 188.737255 188.737255c0 16.062745 10.039216 26.101961 26.101961 26.101961s26.101961-10.039216 26.10196-26.101961c2.007843-150.588235-88.345098-242.94902-238.933333-242.94902z m0 0"  horiz-adv-x="1024" />

    
    <glyph glyph-name="faxian" unicode="&#58892;" d="M512 486.4c-5.688889 0-9.481481 0-15.17037-1.896296-22.755556-3.792593-43.614815-17.066667-56.888889-36.02963-13.274074-18.962963-18.962963-43.614815-15.170371-66.37037 7.585185-47.407407 53.096296-81.540741 102.4-72.05926 22.755556 3.792593 43.614815 17.066667 56.888889 36.02963 13.274074 18.962963 18.962963 43.614815 15.170371 66.37037-7.585185 43.614815-43.614815 73.955556-87.22963 73.955556z m0 0M512 894.103704C229.451852 894.103704 0 666.548148 0 384c0-280.651852 229.451852-510.103704 512-510.103704S1022.103704 103.348148 1022.103704 384C1022.103704 666.548148 792.651852 894.103704 512 894.103704z m7.585185-646.637037h-9.481481c-72.059259 0-134.637037 51.2-146.014815 123.259259-3.792593 22.755556-1.896296 43.614815 3.792592 64.474074h-1.896296l-109.985185 261.688889 244.622222-151.703704h11.377778c72.059259 0 134.637037-51.2 146.014815-123.259259 3.792593-22.755556 1.896296-43.614815-3.792593-64.474074l109.985185-261.688889-244.622222 151.703704z m0 0"  horiz-adv-x="1024" />

    
    <glyph glyph-name="zhankai" unicode="&#58893;" d="M1890.461538 785.723077c0-31.507692-7.876923-55.138462-31.507692-78.769231L1024-96.492308c-47.261538-39.384615-118.153846-39.384615-157.538462 0L31.507692 706.953846c-47.261538 39.384615-47.261538 110.276923 0 157.538462 47.261538 39.384615 118.153846 39.384615 157.538462 0L945.230769 139.815385 1693.538462 864.492308c47.261538 39.384615 118.153846 39.384615 157.538461 0 23.630769-23.630769 39.384615-47.261538 39.384615-78.769231z m0 0"  horiz-adv-x="1890" />

    
    <glyph glyph-name="sousuo" unicode="&#58894;" d="M1017.173333-76.8l-256 252.586667c68.266667 75.093333 105.813333 174.08 105.813334 283.306666C866.986667 704.853333 672.426667 896 433.493333 896 191.146667 896 0 698.026667 0 462.506667c0-242.346667 194.56-433.493333 433.493333-433.493334 109.226667 0 208.213333 37.546667 283.306667 105.813334l256-252.586667c10.24-10.24 30.72-10.24 44.373333 0 13.653333 13.653333 13.653333 30.72 0 40.96zM54.613333 462.506667c0 204.8 167.253333 375.466667 375.466667 375.466666s375.466667-167.253333 375.466667-375.466666c0-98.986667-37.546667-191.146667-102.4-259.413334-3.413333 0-3.413333-3.413333-6.826667-3.413333-3.413333-3.413333-3.413333-3.413333-3.413333-6.826667-68.266667-64.853333-160.426667-102.4-259.413334-102.4-208.213333-6.826667-378.88 163.84-378.88 372.053334z m0 0"  horiz-adv-x="1027" />

    
    <glyph glyph-name="jinru" unicode="&#58895;" d="M253.44-125.44c10.24 0 17.92 2.56 25.6 10.24L793.6 358.4c7.68 7.68 12.8 15.36 12.8 25.6s-5.12 20.48-12.8 25.6L279.04 885.76C263.68 898.56 240.64 898.56 227.84 883.2s-12.8-38.4 2.56-51.2l486.4-448-486.4-448c-10.24-10.24-15.36-25.6-10.24-40.96 5.12-12.8 17.92-20.48 33.28-20.48z m0 0"  horiz-adv-x="1024" />

    
    <glyph glyph-name="dianzan" unicode="&#58896;" d="M610.986667 896c-54.613333 0-102.4-37.546667-112.64-92.16 0 0-17.066667-85.333333-23.893334-112.64-17.066667-51.2-64.853333-105.813333-102.4-122.88-27.306667-13.653333-126.293333-13.653333-133.12-13.653333H102.4c-37.546667 0-68.266667-30.72-68.266667-68.266667v-546.133333c0-37.546667 30.72-68.266667 68.266667-68.266667h631.466667c102.4 0 187.733333 75.093333 201.386666 174.08l51.2 351.573333c13.653333 81.92-51.2 157.013333-136.533333 157.013334h-157.013333s23.893333 75.093333 34.133333 204.8c6.826667 64.853333-40.96 126.293333-109.226667 133.12 0 3.413333-3.413333 3.413333-6.826666 3.413333zM307.2-59.733333V486.4c44.373333 3.413333 78.506667 10.24 95.573333 17.066667 51.2 23.893333 116.053333 92.16 136.533334 163.84 10.24 30.72 23.893333 109.226667 27.306666 119.466666 3.413333 20.48 23.893333 34.133333 47.786667 34.133334 0 6.826667 0 6.826667 3.413333 6.826666 34.133333-3.413333 51.2-34.133333 47.786667-61.44-10.24-119.466667-30.72-191.146667-30.72-191.146666l-30.72-88.746667H853.333333c20.48 0 37.546667-6.826667 51.2-23.893333 13.653333-13.653333 17.066667-34.133333 17.066667-54.613334l-51.2-351.573333c-10.24-68.266667-68.266667-116.053333-136.533333-116.053333H307.2z m-204.8 0V486.4h136.533333v-546.133333H102.4z m0 0"  horiz-adv-x="1024" />

    
    <glyph glyph-name="weizhi1" unicode="&#58897;" d="M896 522.666667C896 729.6 723.2 896 512 896S128 729.6 128 522.666667c0-68.266667 19.2-132.266667 51.2-185.6L512-128l332.8 465.066667c32 55.466667 51.2 119.466667 51.2 185.6m-384-185.6c-106.666667 0-192 83.2-192 185.6 0 102.4 85.333333 185.6 192 185.6s192-83.2 192-185.6c0-102.4-85.333333-185.6-192-185.6"  horiz-adv-x="1024" />

    
    <glyph glyph-name="yingyeshijian" unicode="&#58898;" d="M512 896C228.072727 896 0 667.927273 0 384s228.072727-512 512-512 512 228.072727 512 512S795.927273 896 512 896z m249.018182-595.781818H467.781818c-6.981818 0-11.636364 4.654545-16.290909 11.636363-2.327273 4.654545-4.654545 6.981818-4.654545 11.636364V616.727273c0 11.636364 9.309091 23.272727 20.945454 23.272727s20.945455-11.636364 20.945455-23.272727v-274.618182h269.963636c13.963636 0 27.927273-9.309091 27.927273-20.945455 2.327273-13.963636-11.636364-20.945455-25.6-20.945454z m0 0"  horiz-adv-x="1024" />

    
    <glyph glyph-name="shoucang" unicode="&#58899;" d="M542.404901 896c-14.628571 0-23.405714-2.925714-32.182858-11.702857-8.777143-8.777143-14.628571-17.554286-17.554285-29.257143l-122.88-289.645714-333.531429-29.257143c-8.777143-2.925714-14.628571-5.851429-20.48-11.702857-8.777143-8.777143-11.702857-17.554286-14.628571-26.331429-2.925714-8.777143 0-20.48 5.851428-29.257143 8.777143-11.702857 14.628571-20.48 23.405715-29.257143l11.702857-8.777142 26.331428-23.405715c11.702857-8.777143 23.405714-20.48 38.034286-32.182857L150.359186 340.114286A2750.171429 2750.171429 0 0 0 264.462043 240.64l-38.034285-152.137143c-5.851429-20.48-8.777143-38.034286-14.628572-58.514286-5.851429-17.554286-8.777143-35.108571-11.702857-52.662857-2.925714-14.628571-5.851429-29.257143-8.777143-40.96l-5.851428-20.48c-2.925714-5.851429 0-11.702857 2.925714-17.554285 2.925714-5.851429 8.777143-11.702857 14.628571-14.628572 5.851429-5.851429 11.702857-5.851429 20.48-8.777143h5.851429c5.851429 0 11.702857 0 17.554286 2.925715 2.925714 2.925714 11.702857 5.851429 20.48 11.702857 11.702857 5.851429 23.405714 11.702857 38.034285 20.48 14.628571 8.777143 29.257143 17.554286 46.811429 29.257143 17.554286 8.777143 35.108571 20.48 52.662857 29.257142 40.96 23.405714 87.771429 49.737143 140.434286 81.92l280.868571-163.84 14.628572-5.851428c5.851429-2.925714 11.702857-2.925714 14.628571-2.925714 11.702857 0 20.48 2.925714 29.257143 5.851428 8.777143 5.851429 11.702857 14.628571 8.777143 29.257143 0 2.925714-2.925714 8.777143-2.925714 20.48l-8.777143 40.96c-2.925714 14.628571-5.851429 35.108571-8.777143 52.662857-2.925714 20.48-8.777143 38.034286-11.702857 58.514286-8.777143 46.811429-20.48 99.474286-32.182857 155.062857l222.354285 201.874286c8.777143 11.702857 17.554286 20.48 23.405715 26.331428 5.851429 8.777143 8.777143 17.554286 8.777142 26.331429 0 11.702857-2.925714 17.554286-8.777142 23.405714-5.851429 5.851429-14.628571 8.777143-29.257143 11.702857l-333.531429 32.182857-119.954286 289.645715c-2.925714 5.851429-5.851429 8.777143-8.777142 14.628571-2.925714 2.925714-5.851429 8.777143-8.777143 11.702857-2.925714 5.851429-8.777143 8.777143-14.628572 11.702857-2.925714 2.925714-8.777143 5.851429-17.554285 5.851429"  horiz-adv-x="1083" />

    
    <glyph glyph-name="lianxifangshi" unicode="&#58900;" d="M863.079707 198.808511c-47.931915 37.038298-89.32766 56.646809-128.544681 56.646808-58.825532 0-95.86383-39.217021-130.723404-71.897872l-10.893617-8.714894c-10.893617 0-52.289362 8.714894-167.761702 124.187234-132.902128 132.902128-124.187234 167.761702-124.187234 167.761702l8.714894 8.714894c54.468085 50.110638 126.365957 122.008511 17.429787 259.268085-37.038298 47.931915-80.612766 71.897872-128.544681 71.897872-74.076596-2.178723-135.080851-63.182979-167.761702-95.863829C-65.056463 614.944681 76.560558 329.531915 266.109494 137.804255 451.300984-45.208511 643.028643-128 749.78609-128c39.217021 0 69.719149 10.893617 89.32766 30.502128 32.680851 32.680851 98.042553 98.042553 93.685106 176.476595-2.178723 43.574468-26.144681 82.791489-69.719149 119.829788zM869.615877 734.774468C643.028643 963.540426 436.04992 882.92766 427.335026 878.570213c-17.429787-6.53617-26.144681-26.144681-17.429787-43.574468 6.53617-17.429787 26.144681-26.144681 43.574468-17.429788 2.178723 0 174.297872 67.540426 370.382979-128.54468 180.834043-180.834043 128.544681-363.846809 126.365957-372.561703-6.53617-17.429787 4.357447-37.038298 21.787234-41.395744 4.357447 0 6.53617-2.178723 10.893617-2.178724 15.251064 0 28.323404 8.714894 32.680852 23.965958 0 8.714894 65.361702 228.765957-145.974469 437.923404zM795.539282 416.680851c2.178723-17.429787 17.429787-28.323404 32.680851-28.323404h4.357447c17.429787 2.178723 30.502128 19.608511 28.323404 37.038298-43.574468 287.591489-302.842553 302.842553-305.021277 302.842553-17.429787 0-34.859574-13.07234-34.859574-32.680851 0-17.429787 13.07234-34.859574 32.680851-34.859575 2.178723 2.178723 206.978723-8.714894 241.838298-244.017021z"  horiz-adv-x="1025" />

    
    <glyph glyph-name="dui" unicode="&#58901;" d="M512 896C229.708108 896 0 666.291892 0 384S229.708108-128 512-128 1024 101.708108 1024 384 794.291892 896 512 896z m309.967568-821.967568c-41.513514-41.513514-88.562162-71.956757-138.378379-94.097297-55.351351-22.140541-110.702703-33.210811-171.589189-33.210811-58.118919 0-116.237838 11.07027-171.589189 33.210811-52.583784 22.140541-99.632432 52.583784-138.378379 94.097297-41.513514 41.513514-71.956757 88.562162-94.097297 138.378379-22.140541 55.351351-33.210811 110.702703-33.210811 171.589189 0 58.118919 11.07027 116.237838 33.210811 171.589189 22.140541 52.583784 52.583784 99.632432 94.097297 138.378379 41.513514 41.513514 88.562162 71.956757 138.378379 94.097297 55.351351 22.140541 110.702703 33.210811 171.589189 33.210811 58.118919 0 116.237838-11.07027 171.589189-33.210811 52.583784-22.140541 99.632432-52.583784 138.378379-94.097297 41.513514-41.513514 71.956757-88.562162 94.097297-138.378379 22.140541-55.351351 33.210811-110.702703 33.210811-171.589189 0-58.118919-11.07027-116.237838-33.210811-171.589189-22.140541-52.583784-52.583784-99.632432-94.097297-138.378379z m0 0M736.172973 555.589189L440.043243 259.459459l-152.216216 152.216217c-13.837838 13.837838-38.745946 13.837838-52.583784 0s-13.837838-38.745946 0-52.583784l177.124325-177.124324c8.302703-8.302703 16.605405-11.07027 24.908108-11.070271 8.302703 0 19.372973 2.767568 24.908108 11.070271l321.037838 321.037837c13.837838 13.837838 13.837838 38.745946 0 52.583784-11.07027 13.837838-33.210811 13.837838-47.048649 0z m0 0"  horiz-adv-x="1024" />

    
    <glyph glyph-name="zhankai1" unicode="&#58902;" d="M988.30232027 197.74493719999998L1348.59899886 548.8815308200001c9.16008497 15.26680825-3.05336166 33.58697857-18.32016992 33.5869786H609.68547179C594.41866312 582.4685094199999 582.20521653 564.14833949 591.36530147 548.8815308200001l360.29667857-351.13659362c6.10672331-15.26680825 30.53361691-15.26680825 36.64034023 0z"  horiz-adv-x="1969" />

    
    <glyph glyph-name="shangmenxichesousuo" unicode="&#58903;" d="M1009.07703-45.568355l-190.445524 187.603053c159.178348 179.075642 150.650937 451.952811-22.739764 619.658571-184.760583 179.075642-474.692575 179.075642-659.453158 0C48.321999 676.419153 0 559.877863 0 440.494101s48.321999-238.767523 136.438584-321.199167c167.70576-159.178348 426.370576-176.233171 611.131159-39.794587l193.287995-187.603053c8.527412-8.527412 19.897294-14.212353 34.109646-17.054823 14.212353 0 25.582235 5.684941 34.109646 14.212352 8.527412 8.527412 14.212353 19.897294 14.212352 34.109646 0 11.369882-5.684941 22.739764-14.212352 31.267176zM99.486468 440.494101c2.842471 198.972935 167.70576 358.151284 369.521166 358.151284 198.972935 0 360.993754-159.178348 366.678695-358.151284-2.842471-198.972935-167.70576-358.151284-366.678695-358.151284-201.815406-2.842471-366.678695 156.335878-369.521166 358.151284z m0 0"  horiz-adv-x="1024" />

    
    <glyph glyph-name="fenxiang" unicode="&#58904;" d="M1114.557823 367.359033c0 21.671958-18.575964 40.247921-40.247921 40.247921s-40.247921-18.575964-40.247922-40.247921v-374.615269c0-21.671958-18.575964-40.247921-40.247921-40.247921H117.64777c-21.671958 0-40.247921 18.575964-40.247921 40.247921V645.998488c0 21.671958 18.575964 40.247921 40.247921 40.247922h278.639456c21.671958 0 40.247921 18.575964 40.247921 40.247921 0 21.671958-18.575964 40.247921-40.247921 40.247921H120.743764C52.631897 763.646259 0 711.014361 0 645.998488v-653.254724C0-72.272109 52.631897-128 120.743764-128h876.166289c65.015873 0 120.743764 52.631897 120.743764 120.743764L1114.557823 367.359033z m-693.502645-133.12774c-3.095994-6.191988-3.095994-9.287982-3.095994-15.47997 0-21.671958 18.575964-40.247921 40.247921-40.247922 18.575964 0 34.055933 15.47997 37.151928 30.95994 46.439909 238.391534 241.487528 421.055178 482.975056 448.919123l-83.591837-83.591837c-15.47997-15.47997-15.47997-40.247921 0-55.727891s40.247921-15.47997 55.727892 0l151.703703 154.799698c15.47997 15.47997 15.47997 40.247921 0 55.727891l-151.703703 154.799698c-15.47997 15.47997-40.247921 15.47997-55.727892 0s-15.47997-40.247921 0-55.727891L978.334089 738.878307c-278.639456-27.863946-501.55102-235.29554-557.278911-504.647014z m0 0"  horiz-adv-x="1120" />

    
    <glyph glyph-name="fuwuxiangqingzan" unicode="&#58905;" d="M248.685714 424.96H184.32v-488.594286h64.365714V424.96zM582.217143 896c29.257143 0 55.588571-8.777143 78.994286-26.331429 23.405714-17.554286 38.034286-40.96 43.885714-70.217142l5.851428-20.48c5.851429-26.331429 5.851429-55.588571 5.851429-81.92 0-52.662857-8.777143-102.4-26.331429-152.137143l-2.925714-8.777143h275.017143c20.48 0 38.034286-5.851429 58.514286-17.554286 17.554286-11.702857 32.182857-23.405714 43.885714-43.885714 5.851429-11.702857 11.702857-23.405714 14.628571-35.108572 2.925714-14.628571 2.925714-26.331429 2.925715-40.96v-11.702857s-2.925714-17.554286-8.777143-55.588571c-8.777143-43.885714-14.628571-84.845714-23.405714-125.805714-26.331429-125.805714-46.811429-210.651429-67.291429-254.537143l-8.777143-14.628572c-2.925714-8.777143-8.777143-14.628571-17.554286-23.405714-8.777143-8.777143-14.628571-14.628571-26.331428-20.48-17.554286-11.702857-38.034286-17.554286-58.514286-20.48H43.885714c-11.702857 0-23.405714 2.925714-32.182857 11.702857-8.777143 8.777143-11.702857 17.554286-11.702857 26.331429V451.291429c0 11.702857 2.925714 20.48 11.702857 26.331428 8.777143 8.777143 17.554286 11.702857 26.331429 11.702857H234.057143c14.628571 0 35.108571 8.777143 58.514286 23.405715 26.331429 14.628571 49.737143 35.108571 73.142857 61.44 26.331429 26.331429 46.811429 55.588571 61.44 87.771428 17.554286 35.108571 26.331429 67.291429 29.257143 99.474286v11.702857c0 35.108571 11.702857 64.365714 38.034285 87.771429 23.405714 23.405714 52.662857 35.108571 87.771429 35.108571z m0 0"  horiz-adv-x="1082" />

    
    <glyph glyph-name="shezhi" unicode="&#58906;" d="M983.04 575.146667c13.653333-34.133333 4.551111-72.817778-18.204444-100.124445-47.786667-50.062222-47.786667-131.982222 0-184.32 25.031111-27.306667 31.857778-65.991111 18.204444-100.124444-15.928889-43.235556-40.96-84.195556-70.542222-120.604445-22.755556-27.306667-61.44-40.96-93.297778-34.133333-34.133333 6.826667-68.266667 2.275556-97.848889-15.928889-29.582222-15.928889-50.062222-45.511111-61.44-77.368889-11.377778-36.408889-40.96-61.44-77.368889-65.991111-22.755556-2.275556-47.786667-4.551111-70.542222-4.551111s-47.786667 2.275556-70.542222 4.551111c-36.408889 4.551111-65.991111 29.582222-77.368889 65.991111-20.48 68.266667-91.022222 106.951111-159.288889 93.297778-36.408889-6.826667-70.542222 4.551111-93.297778 34.133333C84.195556 108.657778 59.164444 147.342222 40.96 190.577778c-13.653333 34.133333-4.551111 72.817778 18.204444 100.124444 47.786667 50.062222 47.786667 131.982222 0 184.32C34.133333 504.604444 27.306667 543.288889 40.96 577.422222c15.928889 43.235556 40.96 84.195556 70.542222 120.604445 22.755556 27.306667 61.44 40.96 95.573334 34.133333 34.133333-6.826667 68.266667-2.275556 97.848888 15.928889 29.582222 15.928889 50.062222 45.511111 61.44 77.368889 11.377778 36.408889 40.96 61.44 77.368889 65.991111 45.511111 4.551111 93.297778 4.551111 138.808889 0 36.408889-4.551111 65.991111-29.582222 77.368889-65.991111 9.102222-31.857778 31.857778-61.44 61.44-77.368889 29.582222-15.928889 63.715556-22.755556 97.848889-15.928889 36.408889 6.826667 72.817778-4.551111 93.297778-34.133333 29.582222-38.684444 54.613333-77.368889 70.542222-122.88z m-70.542222-27.306667c-15.928889 36.408889-36.408889 72.817778-61.44 102.4-4.551111 4.551111-11.377778 6.826667-18.204445 4.551111-50.062222-11.377778-104.675556-4.551111-150.186666 22.755556-47.786667 27.306667-81.92 70.542222-95.573334 120.604444-2.275556 6.826667-6.826667 13.653333-15.928889 13.653333-38.684444 4.551111-79.644444 4.551111-118.328888 0-6.826667-2.275556-13.653333-4.551111-15.928889-13.653333-15.928889-50.062222-50.062222-95.573333-95.573334-120.604444-45.511111-27.306667-100.124444-34.133333-152.462222-22.755556-6.826667 2.275556-15.928889-2.275556-18.204444-4.551111-25.031111-31.857778-45.511111-65.991111-61.44-102.4-2.275556-6.826667-2.275556-15.928889 4.551111-20.48 72.817778-81.92 72.817778-204.8 0-286.72-4.551111-4.551111-4.551111-13.653333-4.551111-18.204444 15.928889-38.684444 36.408889-72.817778 59.164444-102.4 4.551111-4.551111 13.653333-6.826667 18.204445-6.826667 106.951111 25.031111 213.902222-38.684444 248.035555-143.36 2.275556-6.826667 6.826667-11.377778 15.928889-13.653333 18.204444-2.275556 38.684444-4.551111 59.164444-4.551112 20.48 0 38.684444 2.275556 61.44 4.551112 6.826667 2.275556 13.653333 4.551111 15.928889 13.653333 15.928889 50.062222 50.062222 95.573333 95.573334 120.604444 45.511111 27.306667 100.124444 34.133333 152.462222 22.755556 6.826667-2.275556 15.928889 2.275556 18.204444 4.551111 25.031111 31.857778 45.511111 65.991111 61.44 102.4 2.275556 4.551111 2.275556 15.928889-4.551111 20.48-72.817778 81.92-72.817778 204.8 0 286.72 4.551111 4.551111 4.551111 13.653333 2.275556 20.48zM505.173333 195.128889c-104.675556 0-188.871111 84.195556-188.871111 188.871111 0 104.675556 84.195556 188.871111 188.871111 188.871111 104.675556 0 188.871111-84.195556 188.871111-188.871111-2.275556-104.675556-84.195556-188.871111-188.871111-188.871111z m0 75.093333c61.44 0 113.777778 50.062222 113.777778 113.777778 0 61.44-50.062222 113.777778-113.777778 113.777778-61.44 0-113.777778-50.062222-113.777777-113.777778s50.062222-113.777778 113.777777-113.777778z m0 0"  horiz-adv-x="1024" />

    
    <glyph glyph-name="weifukuan" unicode="&#58907;" d="M616.727273 896h-218.763637C370.036364 896 349.090909 870.4 349.090909 840.145455c0-30.254545 20.945455-55.854545 48.872727-55.854546h221.090909c25.6 0 46.545455 25.6 46.545455 55.854546 0 30.254545-20.945455 55.854545-48.872727 55.854545z m239.709091-37.236364h-109.381819c0-6.981818 2.327273-11.636364 2.327273-18.618181 0-46.545455-32.581818-90.763636-72.145454-90.763637H339.781818c-41.890909 0-74.472727 46.545455-74.472727 90.763637 0 6.981818 0 11.636364 2.327273 18.618181H158.254545C67.490909 858.763636 46.545455 807.563636 46.545455 733.090909v-737.745454C46.545455-83.781818 76.8-128 165.236364-128h684.218181c86.109091 0 128 34.909091 128 125.672727V733.090909c0 74.472727-39.563636 125.672727-121.018181 125.672727z m-114.036364-726.109091H267.636364c-18.618182 0-34.909091 20.945455-34.909091 39.563637 0 18.618182 13.963636 32.581818 32.581818 32.581818h474.763636c18.618182 0 32.581818-13.963636 32.581818-32.581818 0-18.618182-11.636364-39.563636-30.254545-39.563637z m2.327273 195.49091H269.963636c-18.618182 0-27.927273 18.618182-27.927272 37.236363s13.963636 34.909091 32.581818 34.909091h474.763636c18.618182 0 32.581818-16.290909 32.581818-34.909091s-18.618182-37.236364-37.236363-37.236363z m0 200.145454H269.963636c-18.618182 0-27.927273 18.618182-27.927272 37.236364s13.963636 34.909091 32.581818 34.909091h474.763636c18.618182 0 32.581818-16.290909 32.581818-34.909091s-18.618182-37.236364-37.236363-37.236364z m0 0"  horiz-adv-x="1024" />

    
    <glyph glyph-name="tuikuandan" unicode="&#58908;" d="M492.391489 726.059574C305.021277 726.059574 152.510638 573.548936 152.510638 384s152.510638-342.059574 339.880851-342.059574 339.880851 152.510638 339.880851 342.059574-152.510638 342.059574-339.880851 342.059574z m132.902128-361.668085c13.07234 0 23.965957-10.893617 23.965957-23.965957 0-13.07234-10.893617-23.965957-23.965957-23.965958h-108.93617v-119.829787c0-13.07234-10.893617-23.965957-23.965958-23.965957-13.07234 0-23.965957 10.893617-23.965957 23.965957v119.829787h-108.93617c-13.07234 0-23.965957 10.893617-23.965958 23.965958 0 13.07234 10.893617 23.965957 23.965958 23.965957h108.93617v56.646809h-108.93617c-13.07234 0-23.965957 10.893617-23.965958 23.965957 0 13.07234 10.893617 23.965957 23.965958 23.965958h108.93617v6.53617L392.170213 556.119149c-8.714894 8.714894-8.714894 23.965957 0 32.680851 8.714894 8.714894 23.965957 8.714894 32.680851 0l67.540425-67.540426 67.540426 69.719149c8.714894 8.714894 23.965957 8.714894 34.859574 0 8.714894-8.714894 8.714894-23.965957 0-34.859574l-76.255319-78.434043v-6.53617h108.93617c13.07234 0 23.965957-10.893617 23.965958-23.965957 0-13.07234-10.893617-23.965957-23.965958-23.965958h-108.93617v-56.646808l106.757447-2.178724zM492.391489 896C324.629787 896 176.476596 813.208511 82.791489 686.842553l-30.502127 17.429787c-8.714894 6.53617-21.787234 2.178723-28.323405-6.53617 0-4.357447-2.178723-6.53617-2.178723-10.893617l10.893617-115.47234c0-6.53617 4.357447-13.07234 10.893617-17.429787 6.53617-4.357447 13.07234-4.357447 19.608511 0l102.4 47.931914c4.357447 2.178723 6.53617 4.357447 8.714893 8.714894 6.53617 8.714894 2.178723 21.787234-6.53617 28.323404L137.259574 656.340426C220.051064 763.097872 348.595745 832.817021 492.391489 832.817021 738.587234 832.817021 936.851064 632.374468 936.851064 384c0-248.374468-198.26383-448.817021-444.459575-448.817021-169.940426 0-315.914894 95.86383-392.170212 235.302127L43.574468 144.340426C128.544681-16.885106 298.485106-128 492.391489-128 773.446809-128 1002.212766 100.765957 1002.212766 384S773.446809 896 492.391489 896z m0 0"  horiz-adv-x="1024" />

    
    <glyph glyph-name="weishiyong" unicode="&#58909;" d="M1067.52 837.12C1031.68 875.52 980.48 896 929.28 896H197.12c-51.2 0-102.4-20.48-138.24-58.88C20.48 801.28 0 750.08 0 696.32v-624.64c0-53.76 20.48-102.4 58.88-140.8 17.92-20.48 43.52-35.84 69.12-46.08 23.04-7.68 46.08-12.8 69.12-12.8h732.16c23.04 0 46.08 5.12 69.12 12.8 25.6 10.24 51.2 25.6 71.68 46.08 35.84 38.4 58.88 87.04 58.88 140.8V696.32c-2.56 53.76-23.04 104.96-61.44 140.8z m-645.12 2.56h281.6v-545.28l-110.08 74.24c-17.92 12.8-43.52 12.8-61.44 0l-110.08-74.24V839.68zM56.32 696.32c0 79.36 64 143.36 140.8 143.36h168.96v-227.84H56.32V696.32z m1013.76-84.48H760.32V839.68h168.96c76.8 0 140.8-64 140.8-143.36v-84.48z"  horiz-adv-x="1128" />

    
    <glyph glyph-name="quanbu" unicode="&#58910;" d="M449.163636 360.727273H39.563636c-20.945455 0-39.563636-18.618182-39.563636-39.563637v-409.6c0-20.945455 18.618182-39.563636 39.563636-39.563636h409.6c20.945455 0 39.563636 18.618182 39.563637 39.563636V321.163636c0 20.945455-18.618182 39.563636-39.563637 39.563637zM449.163636 896H39.563636C18.618182 896 0 877.381818 0 856.436364v-409.6c0-20.945455 18.618182-39.563636 39.563636-39.563637h409.6c20.945455 0 39.563636 18.618182 39.563637 39.563637V856.436364c0 20.945455-18.618182 39.563636-39.563637 39.563636zM984.436364 896H574.836364c-20.945455 0-39.563636-18.618182-39.563637-39.563636v-409.6c0-20.945455 18.618182-39.563636 39.563637-39.563637h409.6c20.945455 0 39.563636 18.618182 39.563636 39.563637V856.436364c0 20.945455-18.618182 39.563636-39.563636 39.563636zM984.436364 360.727273H574.836364c-20.945455 0-39.563636-18.618182-39.563637-39.563637v-409.6c0-20.945455 18.618182-39.563636 39.563637-39.563636h409.6c20.945455 0 39.563636 18.618182 39.563636 39.563636V321.163636c0 20.945455-18.618182 39.563636-39.563636 39.563637z"  horiz-adv-x="1024" />

    
    <glyph glyph-name="yiwancheng" unicode="&#58911;" d="M512 896C228.072727 896 0 665.6 0 384s228.072727-512 512-512c281.6 0 512 228.072727 512 512C1024 665.6 793.6 896 512 896z m304.872727-395.636364L472.436364 153.6c-6.981818-6.981818-18.618182-11.636364-30.254546-11.636364s-20.945455 4.654545-30.254545 11.636364c0 4.654545-202.472727 209.454545-202.472728 209.454545-6.981818 6.981818-11.636364 18.618182-11.636363 27.927273 0 11.636364 4.654545 20.945455 11.636363 27.927273 6.981818 6.981818 18.618182 11.636364 27.927273 11.636364 11.636364 0 20.945455-4.654545 27.927273-11.636364l176.872727-176.872727 316.509091 314.181818c6.981818 6.981818 18.618182 11.636364 30.254546 11.636363s20.945455-4.654545 30.254545-11.636363c6.981818-6.981818 11.636364-18.618182 11.636364-30.254546-2.327273-6.981818-4.654545-18.618182-13.963637-25.6z m0 0"  horiz-adv-x="1024" />

    
    <glyph glyph-name="jiamengshang" unicode="&#58912;" d="M1019.545934 57.317865c-2.37587 16.63109-4.75174 28.510441-7.12761 40.389792-7.12761 16.63109-16.63109 30.886311-30.886311 42.765661-14.25522 11.87935-30.886311 21.382831-49.893271 28.510441-19.006961 7.12761-38.013921 14.25522-59.396752 19.00696-21.382831 4.75174-38.013921 11.87935-54.645012 19.006961-19.006961 7.12761-33.262181 16.63109-45.141531 26.134571-11.87935 9.50348-19.006961 19.006961-23.758701 30.88631-4.75174 9.50348-7.12761 21.382831-7.12761 30.886311 0 11.87935 0 21.382831 2.37587 30.886311l7.12761 21.382831c2.37587 4.75174 7.12761 9.50348 9.503481 14.25522 4.75174 4.75174 9.50348 9.50348 14.25522 11.879351 4.75174 4.75174 11.87935 9.50348 16.631091 14.25522 4.75174 4.75174 11.87935 9.50348 16.63109 19.006961 4.75174 9.50348 9.50348 16.63109 11.87935 26.13457 2.37587 9.50348 7.12761 21.382831 9.503481 33.262181 7.12761 2.37587 14.25522 4.75174 19.00696 11.879351 4.75174 4.75174 9.50348 11.87935 14.255221 21.38283 4.75174 9.50348 7.12761 21.382831 9.50348 35.638051 2.37587 11.87935 2.37587 21.382831 0 28.510441-2.37587 7.12761-4.75174 14.25522-7.12761 19.006961-2.37587 4.75174-7.12761 9.50348-11.879351 14.25522 0 26.134571 0 54.645012-4.75174 80.779583-4.75174 23.758701-9.50348 47.517401-19.00696 73.651972s-21.382831 49.893271-38.013921 71.276102c-14.25522 19.006961-38.013921 38.013921-71.276102 54.645011-33.262181 9.50348-68.900232 19.006961-109.290024 19.006961-14.25522 0-30.886311-2.37587-47.517401-4.75174s-33.262181-7.12761-49.893272-14.255221c-16.63109-7.12761-33.262181-16.63109-49.893271-28.51044-16.63109-11.87935-30.886311-28.510441-42.765661-47.517402-14.25522-21.382831-23.758701-42.765661-30.886311-66.524362-7.12761-23.758701-11.87935-47.517401-14.255221-68.900232-2.37587-26.134571-4.75174-52.269142-4.75174-78.403712l-14.25522-21.382831c-2.37587-7.12761-4.75174-14.25522-7.12761-23.7587 0-9.50348 0-21.382831 4.75174-30.886311 4.75174-11.87935 7.12761-19.006961 11.87935-26.134571 4.75174-7.12761 9.50348-11.87935 11.87935-14.25522l14.255221-7.127611c2.37587-11.87935 7.12761-23.758701 9.50348-33.262181 2.37587-9.50348 7.12761-16.63109 11.879351-26.13457 4.75174-9.50348 9.50348-16.63109 14.25522-21.382831 11.87935-9.50348 21.382831-16.63109 30.886311-26.134571 9.50348-9.50348 14.25522-21.382831 16.63109-38.013921 0-11.87935 2.37587-21.382831 2.37587-30.886311s-2.37587-16.63109-4.75174-26.134571c-4.75174-7.12761-9.50348-16.63109-16.63109-23.7587-7.12761-7.12761-19.006961-16.63109-33.262181-26.134571-19.006961-11.87935-38.013921-21.382831-61.772622-26.134571s-47.517401-11.87935-68.900232-21.38283c-21.382831-7.12761-42.765661-19.006961-57.020882-30.886311-16.63109-11.87935-26.134571-30.886311-30.886311-57.020882-7.12761-42.765661-7.12761-80.779582-4.75174-106.914153 4.75174-28.510441 9.50348-45.141531 16.631091-49.893272 4.75174-2.37587 14.25522-7.12761 28.510441-9.50348 16.63109-4.75174 35.638051-7.12761 57.020881-11.87935 23.758701-4.75174 47.517401-7.12761 73.651972-9.503481 26.134571-2.37587 54.645012-4.75174 83.155453-7.12761 28.510441-2.37587 54.645012-4.75174 80.779582-7.12761 26.134571-2.37587 49.893271-2.37587 68.900232-2.37587 19.006961 0 42.765661 0 68.900232 2.37587 26.134571 2.37587 54.645012 4.75174 80.779583 7.12761 28.510441 2.37587 57.020882 4.75174 83.155452 9.503481 28.510441 4.75174 52.269142 7.12761 76.027842 11.87935s42.765661 9.50348 57.020882 14.25522c16.63109 4.75174 23.758701 9.50348 28.510441 14.255221 4.75174 7.12761 9.50348 19.006961 11.87935 33.262181 2.37587 14.25522 4.75174 28.510441 4.75174 45.141531 2.37587 14.25522 2.37587 30.886311 0 47.517401zM233.132941 228.38051v95.034803h92.658933c23.758701 0 45.141531 19.006961 45.141531 45.141532 0 23.758701-19.006961 45.141531-45.141531 45.141531H233.132941v95.034803c0 23.758701-19.006961 45.141531-45.141531 45.141531-23.758701 0-45.141531-19.006961-45.141531-45.141531v-95.034803H45.439206c-23.758701 0-45.141531-19.006961-45.141532-45.141531 0-23.758701 19.006961-45.141531 45.141532-45.141532H142.849879v-95.034803c0-23.758701 19.006961-45.141531 45.141531-45.141531 23.758701 0 45.141531 19.006961 45.141531 45.141531z"  horiz-adv-x="1024" />

    
    <glyph glyph-name="shijidaili" unicode="&#58913;" d="M475.428571 249.904762c-2.438095-7.314286-2.438095-12.190476-4.87619-17.066667-2.438095-4.87619-7.314286-7.314286-14.628571-12.190476-17.066667-9.752381-36.571429-19.504762-56.076191-26.819048-19.504762-7.314286-39.009524-14.628571-56.07619-21.942857-17.066667-7.314286-34.133333-19.504762-46.32381-31.695238-14.628571-12.190476-21.942857-31.695238-24.380952-56.07619-2.438095-7.314286-2.438095-14.628571-2.438096-21.942857 0-7.314286 0-14.628571-2.438095-19.504762 0-2.438095-2.438095-2.438095-2.438095-2.438096l-2.438095-2.438095c-26.819048 2.438095-51.2 4.87619-78.019048 7.314286-26.819048-2.438095-51.2 0-73.142857 4.87619-21.942857 2.438095-41.447619 7.314286-56.076191 9.752381-14.628571 2.438095-24.380952 7.314286-29.257142 9.752381-4.87619 4.87619-9.752381 19.504762-12.190477 41.447619-2.438095 24.380952-2.438095 53.638095 2.438096 92.647619 2.438095 21.942857 12.190476 36.571429 24.380952 48.761905 14.628571 12.190476 29.257143 19.504762 48.761905 26.819048 19.504762 7.314286 36.571429 12.190476 56.07619 17.066666 19.504762 4.87619 36.571429 12.190476 51.2 21.942858 12.190476 7.314286 21.942857 14.628571 26.819048 21.942857 7.314286 7.314286 9.752381 14.628571 12.190476 21.942857 2.438095 7.314286 4.87619 14.628571 4.876191 21.942857v24.380952c-2.438095 14.628571-4.87619 24.380952-12.190477 31.695238-7.314286 7.314286-17.066667 14.628571-24.380952 24.380953-4.87619 2.438095-9.752381 9.752381-12.190476 17.066667-2.438095 7.314286-7.314286 14.628571-9.752381 21.942857-2.438095 7.314286-4.87619 17.066667-7.314286 26.819047-4.87619 2.438095-7.314286 2.438095-12.190476 4.876191-2.438095 2.438095-7.314286 7.314286-9.752381 12.190476-2.438095 4.87619-7.314286 12.190476-9.752381 21.942857-2.438095 9.752381-4.87619 19.504762-4.87619 26.819048 0 7.314286 2.438095 14.628571 4.87619 21.942857 2.438095 7.314286 7.314286 14.628571 9.752381 17.066667 0 21.942857 0 43.885714 2.438095 65.828571 2.438095 19.504762 7.314286 39.009524 12.190476 60.952381 7.314286 19.504762 14.628571 39.009524 26.819048 56.07619C207.238095 832.609524 216.990476 847.238095 231.619048 856.990476c12.190476 9.752381 26.819048 17.066667 39.009523 24.380953 14.628571 4.87619 26.819048 9.752381 41.447619 12.190476 14.628571 0 26.819048 2.438095 41.44762 2.438095 34.133333 0 63.390476-7.314286 90.209523-21.942857 26.819048-14.628571 46.32381-29.257143 58.514286-46.32381 9.752381-12.190476 14.628571-21.942857 17.066667-31.695238 2.438095-9.752381 4.87619-21.942857 9.752381-34.133333-12.190476-7.314286-26.819048-19.504762-39.009524-31.695238-17.066667-14.628571-29.257143-29.257143-39.009524-43.885714-12.190476-19.504762-21.942857-39.009524-29.257143-63.390477-7.314286-21.942857-12.190476-43.885714-14.628571-63.390476-2.438095-24.380952-4.87619-46.32381-4.876191-70.704762-4.87619-4.87619-9.752381-12.190476-12.190476-19.504762-2.438095-7.314286-4.87619-14.628571-4.87619-24.380952s0-19.504762 4.87619-29.257143c2.438095-12.190476 7.314286-19.504762 9.752381-26.819048 4.87619-4.87619 7.314286-9.752381 9.752381-14.628571 4.87619-4.87619 7.314286-7.314286 12.190476-7.314286 2.438095-9.752381 4.87619-21.942857 7.314286-29.257143 2.438095-7.314286 4.87619-17.066667 9.752381-24.380952 2.438095-7.314286 7.314286-14.628571 12.190476-19.504762l9.752381-9.752381 7.314286-7.314285c2.438095-2.438095 2.438095-4.87619 2.438095-9.752381 2.438095-7.314286 2.438095-12.190476 4.87619-17.066667z m526.628572-187.733333c2.438095-9.752381 4.87619-21.942857 7.314286-34.133334 2.438095-14.628571 2.438095-26.819048 2.438095-41.447619 0-14.628571 0-26.819048-2.438095-39.009524s-4.87619-21.942857-9.752381-26.819047c-2.438095-4.87619-9.752381-7.314286-24.380953-12.190476-12.190476-4.87619-29.257143-7.314286-48.761905-12.190477-19.504762-2.438095-41.447619-7.314286-63.390476-9.752381-21.942857-2.438095-46.32381-4.87619-70.704762-7.314285-24.380952-2.438095-46.32381-4.87619-68.266666-4.876191-21.942857-2.438095-41.447619-2.438095-58.514286-2.438095s-36.571429 0-56.07619 2.438095c-21.942857 2.438095-43.885714 2.438095-65.828572 4.876191-21.942857 2.438095-46.32381 4.87619-68.266667 7.314285-21.942857 2.438095-43.885714 4.87619-60.952381 7.314286-19.504762 2.438095-34.133333 4.87619-46.323809 9.752381-12.190476 2.438095-21.942857 4.87619-24.380952 9.752381-4.87619 4.87619-9.752381 19.504762-12.190477 41.447619-2.438095 24.380952-2.438095 53.638095 2.438096 90.209524 2.438095 21.942857 12.190476 36.571429 24.380952 48.761905 14.628571 9.752381 29.257143 19.504762 48.761905 26.819047 19.504762 7.314286 36.571429 12.190476 56.07619 17.066667 19.504762 4.87619 36.571429 12.190476 51.2 21.942857 12.190476 7.314286 21.942857 14.628571 26.819048 21.942857 7.314286 7.314286 9.752381 14.628571 14.628571 19.504762 2.438095 7.314286 4.87619 14.628571 4.876191 21.942857v24.380953c-2.438095 14.628571-4.87619 24.380952-14.628572 31.695238-7.314286 7.314286-17.066667 14.628571-26.819047 21.942857-4.87619 4.87619-9.752381 9.752381-12.190476 17.066667-2.438095 7.314286-7.314286 14.628571-9.752381 21.942857-2.438095 7.314286-4.87619 17.066667-7.314286 26.819047-4.87619 2.438095-7.314286 2.438095-12.190476 4.876191-2.438095 2.438095-7.314286 7.314286-9.752381 12.190476-2.438095 4.87619-7.314286 12.190476-9.752381 21.942857-2.438095 9.752381-4.87619 19.504762-4.876191 26.819048 0 7.314286 2.438095 14.628571 4.876191 21.942857 2.438095 7.314286 7.314286 12.190476 9.752381 17.066667 0 21.942857 0 43.885714 2.438095 65.828571 2.438095 19.504762 7.314286 39.009524 12.190476 58.514286s14.628571 39.009524 26.819048 56.07619c12.190476 24.380952 24.380952 36.571429 39.009524 48.761905 12.190476 9.752381 26.819048 17.066667 41.447619 24.380952 14.628571 4.87619 26.819048 9.752381 41.447619 12.190477 14.628571 2.438095 26.819048 2.438095 39.009523 2.438095 34.133333 0 63.390476-7.314286 90.209524-21.942857 26.819048-14.628571 46.32381-29.257143 58.514286-46.32381 14.628571-17.066667 24.380952-39.009524 31.695238-60.952381 7.314286-21.942857 12.190476-43.885714 14.628572-63.390476 2.438095-21.942857 4.87619-46.32381 4.87619-68.266667 2.438095-2.438095 7.314286-7.314286 9.752381-12.190476 2.438095-4.87619 4.87619-9.752381 4.87619-14.628571 2.438095-7.314286 2.438095-14.628571 0-24.380953-2.438095-12.190476-4.87619-21.942857-7.314285-29.257143-4.87619-7.314286-7.314286-12.190476-12.190476-17.066666-4.87619-4.87619-9.752381-7.314286-14.628572-9.752381-2.438095-9.752381-4.87619-19.504762-7.314286-26.819048-2.438095-7.314286-4.87619-14.628571-9.752381-21.942857-4.87619-7.314286-7.314286-12.190476-12.190476-17.066667-4.87619-4.87619-9.752381-9.752381-14.628571-12.190476-4.87619-2.438095-7.314286-7.314286-12.190476-9.752381-2.438095-4.87619-7.314286-7.314286-7.314286-12.190476-2.438095-4.87619-4.87619-9.752381-4.876191-17.066667-2.438095-9.752381-2.438095-17.066667-2.438095-26.819047 0-9.752381 2.438095-17.066667 7.314286-26.819048 4.87619-9.752381 9.752381-17.066667 19.504762-24.380952 9.752381-7.314286 21.942857-14.628571 36.571428-21.942857 14.628571-4.87619 29.257143-12.190476 46.32381-14.628572 17.066667-4.87619 34.133333-9.752381 48.761905-14.628571 14.628571-4.87619 29.257143-14.628571 41.447619-24.380953 7.314286-12.190476 17.066667-24.380952 21.942857-39.009523z m0 0"  horiz-adv-x="1024" />

    
    <glyph glyph-name="quxiandaili" unicode="&#58914;" d="M925.884249 55.367442c-2.381395 16.669767-4.762791 28.576744-7.144186 40.483721-7.144186 16.669767-16.669767 30.95814-33.339535 42.865116-14.288372 11.906977-30.95814 21.432558-50.009302 28.576744s-38.102326 14.288372-59.534884 19.051163c-21.432558 4.762791-40.483721 11.906977-57.153488 19.051163-19.051163 7.144186-35.72093 16.669767-45.246512 26.195349-11.906977 9.525581-19.051163 19.051163-23.813953 30.958139-4.762791 9.525581-7.144186 21.432558-7.144186 30.95814 0 11.906977 0 21.432558 2.381395 30.958139l7.144186 21.432558c2.381395 4.762791 7.144186 9.525581 9.525582 14.288373 4.762791 4.762791 9.525581 9.525581 14.288372 11.906976 4.762791 4.762791 11.906977 9.525581 16.669767 14.288372 4.762791 4.762791 11.906977 9.525581 16.669768 19.051163 4.762791 9.525581 9.525581 16.669767 11.906976 26.195349 2.381395 9.525581 7.144186 21.432558 9.525582 33.339535 7.144186 2.381395 14.288372 4.762791 19.051162 11.906977 4.762791 4.762791 9.525581 11.906977 14.288373 21.432558 4.762791 9.525581 7.144186 21.432558 9.525581 35.72093 2.381395 11.906977 2.381395 21.432558 0 28.576744-2.381395 7.144186-4.762791 14.288372-7.144186 19.051163-2.381395 4.762791-7.144186 9.525581-11.906977 14.288372 0 26.195349 0 54.772093-4.762791 80.967442-4.762791 23.813953-9.525581 47.627907-19.051162 73.823256s-21.432558 50.009302-40.483721 71.44186c-14.288372 19.051163-38.102326 38.102326-71.441861 54.772093-28.576744 9.525581-66.67907 19.051163-107.16279 19.051163-14.288372 0-30.95814-2.381395-47.627907-4.762791s-33.339535-7.144186-50.009303-14.288372c-16.669767-7.144186-33.339535-16.669767-50.009302-28.576744-16.669767-11.906977-30.95814-28.576744-42.865116-47.627907-19.051163-19.051163-28.576744-40.483721-35.720931-64.297674-7.144186-23.813953-11.906977-47.627907-14.288372-69.060465-2.381395-26.195349-4.762791-52.390698-4.76279-78.586047l-14.288372-21.432558c-2.381395-7.144186-4.762791-14.288372-7.144186-23.813954 0-9.525581 0-21.432558 4.76279-30.958139 7.144186-14.288372 11.906977-21.432558 14.288372-28.576744 4.762791-7.144186 9.525581-11.906977 11.906977-14.288372l14.288372-7.144186c2.381395-11.906977 7.144186-23.813953 9.525582-33.339535 2.381395-9.525581 7.144186-16.669767 11.906976-26.195349 4.762791-9.525581 9.525581-16.669767 14.288372-21.432558 11.906977-9.525581 21.432558-16.669767 30.95814-26.195349 9.525581-9.525581 14.288372-21.432558 16.669767-38.102326 0-11.906977 2.381395-21.432558 2.381396-30.958139s-2.381395-16.669767-4.762791-26.195349c-4.762791-7.144186-9.525581-16.669767-16.669767-23.813954-7.144186-7.144186-19.051163-16.669767-33.339535-26.195348-19.051163-11.906977-40.483721-21.432558-64.297675-26.195349s-47.627907-11.906977-69.060465-21.432558c-21.432558-4.762791-40.483721-14.288372-57.153488-28.576745-16.669767-11.906977-26.195349-30.95814-30.95814-57.153488-7.144186-42.865116-7.144186-78.586047-4.76279-107.162791 4.762791-28.576744 9.525581-45.246512 16.669767-50.009302 4.762791-2.381395 14.288372-7.144186 28.576744-9.525581 16.669767-4.762791 35.72093-7.144186 57.153489-11.906977 23.813953-4.762791 47.627907-7.144186 76.204651-9.525582 28.576744-2.381395 54.772093-4.762791 83.348837-7.144186 28.576744-2.381395 54.772093-4.762791 80.967442-7.144186 26.195349-2.381395 50.009302-2.381395 69.060465-2.381395 21.432558 0 42.865116 0 71.44186 2.381395 26.195349 2.381395 54.772093 4.762791 83.348838 7.144186 28.576744 2.381395 57.153488 4.762791 85.730232 9.525582 28.576744 4.762791 54.772093 7.144186 78.586047 11.906977s42.865116 9.525581 59.534883 14.288372c16.669767 4.762791 26.195349 9.525581 28.576745 14.288372 4.762791 7.144186 9.525581 19.051163 11.906976 33.339535 2.381395 14.288372 4.762791 28.576744 4.762791 45.246511s-2.381395 28.576744-4.762791 45.246512z"  horiz-adv-x="1024" />

    
    <glyph glyph-name="weibiaoti-" unicode="&#58915;" d="M1497.433766 696.519481H98.41039C45.215584 696.519481 0 741.735065 0 794.92987 0 850.784416 45.215584 896 98.41039 896h1396.363636C1550.628571 896 1595.844156 850.784416 1595.844156 797.58961c0-55.854545-45.215584-101.07013-98.41039-101.070129zM1497.433766 284.25974H98.41039c-53.194805 0-98.41039 45.215584-98.41039 98.41039 0 55.854545 45.215584 98.41039 98.41039 98.410389h1396.363636c55.854545 0 98.41039-45.215584 98.41039-98.410389 2.65974-53.194805-42.555844-98.41039-95.75065-98.41039zM1497.433766-128H98.41039c-55.854545 0-98.41039 45.215584-98.41039 98.41039C0 26.264935 45.215584 71.480519 98.41039 71.480519h1396.363636c55.854545 0 98.41039-45.215584 98.41039-98.410389 2.65974-55.854545-42.555844-101.07013-95.75065-101.07013z"  horiz-adv-x="1595" />

    
    <glyph glyph-name="jingying" unicode="&#58916;" d="M976.738462-126.030769H47.261538C19.692308-126.030769 0-104.369231 0-74.830769V691.2C0 718.769231 19.692308 742.4 47.261538 742.4h232.369231V868.430769c0 13.784615 9.846154 25.6 23.630769 25.6h417.476924c11.815385 0 23.630769-11.815385 23.630769-25.6v-128h232.369231c25.6 0 47.261538-23.630769 47.261538-51.2v-766.030769c-1.969231-27.569231-21.661538-49.230769-47.261538-49.230769zM697.107692 844.8H324.923077v-102.4h372.184615V844.8z m68.923077-358.4H256c-11.815385 0-23.630769-11.815385-23.630769-25.6 0-13.784615 9.846154-25.6 23.630769-25.6h512c11.815385 0 23.630769 11.815385 23.630769 25.6-1.969231 13.784615-11.815385 25.6-25.6 25.6z m0 0"  horiz-adv-x="1024" />

    
    <glyph glyph-name="qingchu" unicode="&#58917;" d="M512-128C230.4-128 0 102.4 0 384S230.4 896 512 896s512-230.4 512-512-230.4-512-512-512z m230.4 742.4c-12.8 12.8-35.2 12.8-48 0L512 432l-182.4 182.4c-12.8 12.8-35.2 12.8-48 0-12.8-12.8-12.8-35.2 0-48l182.4-182.4-182.4-182.4c-12.8-12.8-12.8-35.2 0-48 12.8-12.8 35.2-12.8 48 0l182.4 182.4 182.4-182.4c12.8-12.8 35.2-12.8 48 0 12.8 12.8 12.8 35.2 0 48L560 384l182.4 182.4c12.8 16 12.8 35.2 0 48z m0 0"  horiz-adv-x="1024" />

    
    <glyph glyph-name="pingjia" unicode="&#58918;" d="M576.984615 626.215385H846.769231L531.692308 892.061538v-222.523076c0-25.6 17.723077-43.323077 45.292307-43.323077z m0 0M594.707692-33.476923H590.769231l-35.446154-92.553846 94.523077 27.569231h3.938461l238.276923 204.8-64.984615 63.015384-232.369231-202.830769z m0 0M846.769231 582.892308H531.692308c-27.569231 0-45.292308 17.723077-45.292308 45.292307V892.061538H129.969231C78.769231 892.061538 39.384615 852.676923 39.384615 803.446154v-842.830769C39.384615-88.615385 78.769231-128 129.969231-128h259.938461L846.769231 320.984615V582.892308zM555.323077 317.046154H196.923077c-13.784615 0-21.661538 9.846154-21.661539 21.661538 0 13.784615 9.846154 21.661538 21.661539 21.661539h358.4c13.784615 0 21.661538-7.876923 21.661538-21.661539 0-13.784615-13.784615-21.661538-21.661538-21.661538z m133.907692 131.938461H196.923077c-13.784615 0-21.661538 7.876923-21.661539 21.661539 0 13.784615 9.846154 21.661538 21.661539 21.661538h492.307692c13.784615 0 21.661538-9.846154 21.661539-21.661538 0-11.815385-11.815385-21.661538-21.661539-21.661539z m0 0M980.676923 200.861538L945.230769 246.153846c-3.938462 3.938462-9.846154 3.938462-13.784615 0L886.153846 210.707692c-3.938462-3.938462-3.938462-9.846154 0-13.784615l35.446154-45.292308c3.938462-3.938462 9.846154-3.938462 13.784615 0l45.292308 35.446154c3.938462 0 3.938462 9.846154 0 13.784615z m0 0"  horiz-adv-x="1024" />

    
    <glyph glyph-name="yanzheng" unicode="&#58919;" d="M894.550943 768.483019h-27.049056C637.584906 768.483019 535.184906 870.883019 535.184906 870.883019L512 896l-23.184906-25.116981c-1.932075 0-108.196226-110.128302-359.366037-102.4L96.603774 770.415094v-461.766037c0-121.720755 42.50566-297.539623 403.803773-430.852831l11.592453-3.864151 11.592453 3.864151C884.890566 13.041509 927.396226 188.860377 927.396226 308.649057V770.415094l-32.845283-1.932075z m-425.056603-597.011321L227.984906 378.203774l63.75849 50.233962 127.516981-90.807547s177.750943 175.818868 347.773585 258.898113l25.116981-27.049057c1.932075 0-212.528302-170.022642-322.656603-398.007547z m0 0"  horiz-adv-x="1024" />

    
    <glyph glyph-name="dianpu" unicode="&#58920;" d="M909.312 826.368s4.096 0 0 0l8.192-8.192 143.36-262.144c4.096 0 4.096-4.096 8.192-8.192 4.096-8.192 8.192-12.288 8.192-16.384 8.192-53.248-8.192-81.92-28.672-118.784-20.48-32.768-49.152-49.152-86.016-49.152-53.248 0-98.304 28.672-126.976 69.632-12.288 20.48-32.768 32.768-57.344 32.768-24.576 0-45.056-12.288-57.344-28.672-28.672-49.152-77.824-73.728-126.976-73.728-49.152 0-102.4 28.672-126.976 69.632-12.288 20.48-32.768 28.672-57.344 28.672-24.576 0-45.056-8.192-57.344-28.672-28.672-45.056-77.824-69.632-126.976-69.632-49.152 4.096-94.208 28.672-122.88 69.632-20.48 28.672-40.96 73.728-20.48 139.264l135.168 253.952s4.096 0 4.096 4.096l688.128-4.096m4.096 69.632H212.992c-16.384 0-40.96-8.192-53.248-24.576v-4.096L16.384 609.28c-4.096-4.096-4.096-8.192-4.096-12.288v-4.096c-49.152-163.84 77.824-290.816 204.8-299.008 77.824 0 147.456 40.96 188.416 106.496 40.96-61.44 106.496-102.4 184.32-102.4s147.456 40.96 184.32 106.496c36.864-65.536 106.496-106.496 184.32-106.496 61.44 0 106.496 28.672 143.36 86.016 28.672 45.056 49.152 86.016 40.96 163.84 0 8.192-8.192 28.672-20.48 45.056 0 0 0 4.096-4.096 4.096L974.848 859.136l-4.096 8.192s0 4.096-4.096 4.096c-4.096 4.096-20.48 24.576-53.248 24.576z m12.288-1024H208.896C159.744-128 122.88-91.136 122.88-41.984v274.432h69.632v-274.432c0-8.192 8.192-16.384 16.384-16.384h716.8c8.192 0 16.384 8.192 16.384 16.384v274.432h69.632v-274.432c0-49.152-36.864-86.016-86.016-86.016z m0 0M217.088 658.432H901.12v-69.632H217.088z"  horiz-adv-x="1146" />

    
    <glyph glyph-name="lajixiang" unicode="&#58921;" d="M992.613027 739.065134h-211.862069V786.145594c0 58.850575-51.003831 109.854406-109.854406 109.854406H341.333333C278.559387 896 227.555556 844.996169 227.555556 786.145594V739.065134H27.463602c-11.770115 0-27.463602-11.770115-27.463602-31.386973 0-15.693487 11.770115-27.463602 27.463602-27.463602h66.697318v-698.360153c0-58.850575 51.003831-109.854406 109.854406-109.854406H823.908046c62.773946 0 109.854406 51.003831 109.854406 109.854406V680.214559h58.850575c15.693487 0 27.463602 11.770115 27.463601 27.463602-3.923372 15.693487-11.770115 31.386973-27.463601 31.386973zM290.329502 786.145594c0 27.463602 23.54023 51.003831 54.927203 51.003831h329.563218c27.463602 0 54.927203-23.54023 54.927203-51.003831V739.065134H290.329502V786.145594z m588.505747-792.521073c0-31.386973-19.616858-62.773946-47.08046-62.773946H215.785441c-27.463602 0-62.773946 19.616858-62.773947 51.003831L156.934866 680.214559h717.977011V-6.375479z m0 0"  horiz-adv-x="1024" />

    
    <glyph glyph-name="pinglun" unicode="&#58922;" d="M229.341093 524.797339c0-30.649761 23.838703-54.488464 54.488464-54.488464 30.649761 0 54.488464 23.838703 54.488464 54.488464 0 30.649761-23.838703 54.488464-54.488464 54.488464-27.244232 0-54.488464-23.838703-54.488464-54.488464z m558.506756 0c0 30.649761-23.838703 54.488464-54.488464 54.488464-30.649761 0-54.488464-23.838703-54.488464-54.488464 0-30.649761 23.838703-54.488464 54.488464-54.488464 30.649761-3.405529 54.488464 23.838703 54.488464 54.488464z m-170.27645-360.986073h357.580544c17.027645 0 27.244232 13.622116 27.244232 30.649761v647.050509c0 34.05529-17.027645 54.488464-54.488464 54.488464H59.064644C31.820412 896 18.198296 878.972355 18.198296 851.728123v-643.64498c0-23.838703 10.216587-47.677406 37.460819-47.677406h173.681978l289.469965-272.44232c23.838703-17.027645 44.271877-20.433174 61.299522-10.216587 13.622116 6.811058 20.433174 20.433174 20.433174 37.460819V146.783621c-3.405529 13.622116 6.811058 17.027645 17.027645 17.027645z m-108.976928-163.465392l-221.359385 221.359385c-6.811058 10.216587-17.027645 17.027645-34.05529 17.027645H133.986281c-23.838703 0-37.460819 13.622116-37.460819 37.460819V776.806485c0 23.838703 13.622116 40.866348 37.460819 40.866348h759.432967c23.838703 0 37.460819-10.216587 37.460819-37.460819v-521.045936c0-20.433174-6.811058-20.433174-27.244232-20.433174H546.05529c-17.027645 0-23.838703-6.811058-23.838703-20.433174V10.562461c3.405529-17.027645 0-20.433174-13.622116-10.216587z m-54.488464 524.451465c0-30.649761 23.838703-54.488464 54.488464-54.488464 30.649761 0 54.488464 23.838703 54.488464 54.488464 0 30.649761-23.838703 54.488464-54.488464 54.488464-30.649761 0-54.488464-23.838703-54.488464-54.488464z m0 0"  horiz-adv-x="1024" />

    
    <glyph glyph-name="shoucang1" unicode="&#58923;" d="M819.2 896c-122.88 0-210.651429-111.177143-248.685714-169.691429C532.48 784.822857 444.708571 896 321.828571 896 143.36 896 0 735.085714 0 539.062857c0-90.697143 61.44-222.354286 137.508571-292.571428C242.834286 114.834286 535.405714-128 570.514286-128c38.034286 0 324.754286 236.982857 430.08 374.491429 76.068571 70.217143 140.434286 201.874286 140.434285 292.571428C1141.028571 735.085714 997.668571 896 819.2 896z"  horiz-adv-x="1141" />

    
    <glyph glyph-name="shoucangweixuan" unicode="&#58924;" d="M819.2 896c-122.88 0-210.651429-111.177143-248.685714-169.691429C532.48 784.822857 444.708571 896 321.828571 896 143.36 896 0 735.085714 0 539.062857c0-90.697143 61.44-222.354286 137.508571-292.571428C242.834286 114.834286 535.405714-128 570.514286-128c38.034286 0 324.754286 236.982857 430.08 374.491429 76.068571 70.217143 140.434286 201.874286 140.434285 292.571428C1141.028571 735.085714 997.668571 896 819.2 896m245.76-356.937143c0-73.142857-52.662857-184.32-117.028571-239.908571l-5.851429-5.851429c-93.622857-122.88-280.868571-272.091429-371.565714-339.382857-67.291429 49.737143-272.091429 204.8-374.491429 339.382857 0 2.925714-2.925714 2.925714-5.851428 5.851429-61.44 55.588571-114.102857 166.765714-114.102858 239.908571 0 155.062857 111.177143 280.868571 245.76 280.868572 87.771429 0 169.691429-93.622857 216.502858-187.245715 5.851429-11.702857 17.554286-20.48 35.108571-20.48 14.628571 0 29.257143 8.777143 35.108571 20.48 43.885714 93.622857 128.731429 187.245714 216.502858 187.245715 131.657143 0 239.908571-125.805714 239.908571-280.868572"  horiz-adv-x="1141" />

    
    <glyph glyph-name="gouwuche" unicode="&#58925;" d="M1015.915789 691.2c-5.389474 10.778947-18.863158 16.168421-29.642105 16.168421H202.105263L169.768421 866.357895C167.073684 882.526316 150.905263 896 134.736842 896H37.726316C16.168421 896 0 879.831579 0 858.273684s16.168421-37.726316 37.726316-37.726316h67.368421l142.821052-689.852631c2.694737-18.863158 18.863158-29.642105 37.726316-29.642105h563.2c21.557895 0 37.726316 16.168421 37.726316 37.726315s-16.168421 37.726316-37.726316 37.726316H312.589474l-24.252632 113.178948h606.31579c16.168421 0 32.336842 10.778947 35.031579 26.947368L1024 658.863158c2.694737 10.778947 0 24.252632-8.084211 32.336842z m-148.210526-326.063158h-592.842105l-53.894737 266.778947h719.494737l-72.757895-266.778947zM355.705263 60.631579c-51.2 0-94.315789-43.115789-94.315789-94.31579s43.115789-94.315789 94.315789-94.315789 94.315789 43.115789 94.31579 94.315789-43.115789 94.315789-94.31579 94.31579z m0-132.042105c-21.557895 0-37.726316 16.168421-37.726316 37.726315 0 21.557895 16.168421 37.726316 37.726316 37.726316 21.557895 0 37.726316-16.168421 37.726316-37.726316 0-21.557895-18.863158-37.726316-37.726316-37.726315zM765.305263 60.631579c-51.2 0-94.315789-43.115789-94.315789-94.31579s43.115789-94.315789 94.315789-94.315789 94.315789 43.115789 94.31579 94.315789-43.115789 94.315789-94.31579 94.31579z m0-132.042105c-21.557895 0-37.726316 16.168421-37.726316 37.726315 0 21.557895 16.168421 37.726316 37.726316 37.726316 21.557895 0 37.726316-16.168421 37.726316-37.726316 0-21.557895-16.168421-37.726316-37.726316-37.726315z m0 0"  horiz-adv-x="1025" />

    


  </font>
</defs>
</svg>
