<?xml version="1.0" encoding="utf-8"?>
<!-- Generator: Adobe Illustrator 21.0.0, SVG Export Plug-In . SVG Version: 6.00 Build 0)  -->
<svg version="1.1" id="图层_1" xmlns="http://www.w3.org/2000/svg" xmlns:xlink="http://www.w3.org/1999/xlink" x="0px" y="0px"
	 viewBox="0 0 42 45" style="enable-background:new 0 0 42 45;" xml:space="preserve">
<style type="text/css">
	.st0{clip-path:url(#SVGID_2_);fill:#4A576A;}
</style>
<g>
	<g>
		<defs>
			<rect id="SVGID_1_" width="42" height="45"/>
		</defs>
		<clipPath id="SVGID_2_">
			<use xlink:href="#SVGID_1_"  style="overflow:visible;"/>
		</clipPath>
		<path class="st0" d="M41.7,14.1c0.6,1.5,0.2,3.2-0.8,4.4c-2.1,2.2-2.1,5.8,0,8.1c1.1,1.2,1.4,2.9,0.8,4.4
			c-0.7,1.9-1.8,3.7-3.1,5.3c-1,1.2-2.7,1.8-4.1,1.5c-1.5-0.3-3-0.1-4.3,0.7c-1.3,0.7-2.2,2-2.7,3.4c-0.5,1.6-1.8,2.7-3.4,2.9
			c-1,0.1-2.1,0.2-3.1,0.2c-1,0-2.1-0.1-3.1-0.2c-1.6-0.2-2.9-1.3-3.4-2.9c-0.9-3-4-4.7-7-4.1c-1.6,0.3-3.1-0.2-4.1-1.5
			c-1.2-1.7-2.3-3.4-3.1-5.3c-0.6-1.5-0.2-3.2,0.8-4.4c2.1-2.2,2.1-5.8,0-8.1C0,17.2-0.3,15.5,0.3,14c0.7-1.9,1.8-3.7,3.1-5.3
			c1-1.2,2.7-1.8,4.2-1.5c1.5,0.3,3,0.1,4.3-0.7c1.3-0.7,2.2-2,2.7-3.4c0.5-1.6,1.8-2.7,3.4-2.9c2-0.2,4.1-0.2,6.1,0
			c1.6,0.2,2.9,1.3,3.4,2.9c0.4,1.4,1.4,2.7,2.7,3.4c1.3,0.7,2.8,1,4.3,0.7c1.6-0.3,3.2,0.2,4.1,1.5C39.9,10.4,41,12.1,41.7,14.1
			L41.7,14.1z M38.6,15.3c-0.7-1.6-1.6-3.2-2.7-4.5c-0.2-0.2-0.5-0.3-0.8-0.2c-2.2,0.5-4.6,0.2-6.6-1c-2.1-1.2-3.6-3.1-4.2-5.3
			c-0.1-0.3-0.3-0.6-0.7-0.6c-1.7-0.2-3.5-0.2-5.2,0c-0.3,0.1-0.6,0.2-0.7,0.6c-0.7,2.2-2.2,4.2-4.2,5.3c-2,1.2-4.4,1.5-6.7,1
			c-0.3-0.1-0.7,0.1-0.8,0.2c-1.1,1.4-2,2.9-2.7,4.5c-0.1,0.3-0.1,0.7,0.2,0.9c3.2,3.6,3.2,9,0,12.6c-0.2,0.2-0.2,0.6-0.2,0.8
			c0.7,1.7,1.6,3.2,2.6,4.5c0.2,0.2,0.6,0.3,0.8,0.3c4.7-1.1,9.4,1.7,10.9,6.3c0.1,0.3,0.3,0.5,0.7,0.6c0.8,0.1,1.7,0.2,2.6,0.2
			c0.9,0,1.7-0.1,2.7-0.2c0.3-0.1,0.6-0.2,0.7-0.6c0.7-2.2,2.2-4.2,4.2-5.3c2-1.2,4.4-1.5,6.7-1c0.3,0.1,0.7-0.1,0.8-0.2
			c1.1-1.4,2-2.9,2.7-4.5c0.1-0.2,0.1-0.7-0.2-0.9c-3.2-3.6-3.2-9,0-12.6C38.7,16,38.7,15.6,38.6,15.3L38.6,15.3z M20.7,30.8
			c-4.6,0-8.3-3.7-8.3-8.3c0-4.6,3.7-8.3,8.3-8.3c4.6,0,8.3,3.7,8.3,8.3C28.9,27.1,25.3,30.8,20.7,30.8L20.7,30.8z M20.7,27.5
			c2.7,0,5-2.2,5-5c0-2.7-2.2-5-5-5c-2.7,0-5,2.2-5,5C15.7,25.3,17.9,27.5,20.7,27.5L20.7,27.5z M20.7,27.5"/>
	</g>
</g>
</svg>
