<?xml version="1.0" encoding="utf-8"?>
<!-- Generator: Adobe Illustrator 21.0.0, SVG Export Plug-In . SVG Version: 6.00 Build 0)  -->
<svg version="1.1" id="图层_1" xmlns="http://www.w3.org/2000/svg" xmlns:xlink="http://www.w3.org/1999/xlink" x="0px" y="0px"
	 viewBox="0 0 44 40" style="enable-background:new 0 0 44 40;" xml:space="preserve">
<path d="M41.7,2.3C40.3,0.8,38.3,0,36.3,0H7.7c-2,0-4,0.8-5.4,2.3C0.8,3.7,0,5.7,0,7.8v24.4c0,2.1,0.8,4,2.3,5.5
	C3,38.5,4,39.1,5,39.5C5.9,39.8,6.8,40,7.7,40h28.6c0.9,0,1.8-0.2,2.7-0.5c1-0.4,2-1,2.8-1.8c1.4-1.5,2.3-3.4,2.3-5.5V7.8
	C44,5.7,43.2,3.7,41.7,2.3z M16.5,2.2h11v21.3l-4.3-2.9c-0.7-0.5-1.7-0.5-2.4,0l-4.3,2.9V2.2z M2.2,7.8c0-3.1,2.5-5.6,5.5-5.6h6.6
	v8.9H2.2V7.8z M41.8,11.1H29.7V2.2h6.6c3,0,5.5,2.5,5.5,5.6V11.1z"/>
</svg>
