<?xml version="1.0" encoding="utf-8"?>
<!-- Generator: Adobe Illustrator 21.0.0, SVG Export Plug-In . SVG Version: 6.00 Build 0)  -->
<svg version="1.1" id="图层_1" xmlns="http://www.w3.org/2000/svg" xmlns:xlink="http://www.w3.org/1999/xlink" x="0px" y="0px"
	 viewBox="0 0 44 44" style="enable-background:new 0 0 44 44;" xml:space="preserve">
<g>
	<path d="M19.3,23H1.7C0.8,23,0,23.8,0,24.7v17.6C0,43.2,0.8,44,1.7,44h17.6c0.9,0,1.7-0.8,1.7-1.7V24.7C21,23.8,20.2,23,19.3,23z"
		/>
	<path d="M19.3,0H1.7C0.8,0,0,0.8,0,1.7v17.6C0,20.2,0.8,21,1.7,21h17.6c0.9,0,1.7-0.8,1.7-1.7V1.7C21,0.8,20.2,0,19.3,0z"/>
	<path d="M42.3,0H24.7C23.8,0,23,0.8,23,1.7v17.6c0,0.9,0.8,1.7,1.7,1.7h17.6c0.9,0,1.7-0.8,1.7-1.7V1.7C44,0.8,43.2,0,42.3,0z"/>
	<path d="M42.3,23H24.7c-0.9,0-1.7,0.8-1.7,1.7v17.6c0,0.9,0.8,1.7,1.7,1.7h17.6c0.9,0,1.7-0.8,1.7-1.7V24.7
		C44,23.8,43.2,23,42.3,23z"/>
</g>
</svg>
