<?xml version="1.0" encoding="utf-8"?>
<!-- Generator: Adobe Illustrator 21.0.0, SVG Export Plug-In . SVG Version: 6.00 Build 0)  -->
<svg version="1.1" id="图层_1" xmlns="http://www.w3.org/2000/svg" xmlns:xlink="http://www.w3.org/1999/xlink" x="0px" y="0px"
	 viewBox="0 0 45 47" style="enable-background:new 0 0 45 47;" xml:space="preserve">
<g>
	<path d="M21.6,7.8c-8.6,0-15.6,7-15.6,15.7c0,8.7,7,15.7,15.6,15.7c8.6,0,15.6-7,15.6-15.7C37.2,14.8,30.2,7.8,21.6,7.8L21.6,7.8z
		 M27.7,24.4c0.6,0,1.1,0.5,1.1,1.1c0,0.6-0.5,1.1-1.1,1.1h-5v5.5c0,0.6-0.5,1.1-1.1,1.1c-0.6,0-1.1-0.5-1.1-1.1v-5.5h-5
		c-0.6,0-1.1-0.5-1.1-1.1c0-0.6,0.5-1.1,1.1-1.1h5v-2.6h-5c-0.6,0-1.1-0.5-1.1-1.1c0-0.6,0.5-1.1,1.1-1.1h5v-0.3L17,15.6
		c0,0,0,0,0,0c0,0,0,0,0,0l0,0l0,0c-0.4-0.4-0.4-1.1,0-1.5c0.4-0.4,1.1-0.4,1.5,0l0,0l0,0c0,0,0,0,0,0c0,0,0,0,0,0l3.1,3.1l3.1-3.2
		c0.4-0.4,1.1-0.4,1.6,0c0.4,0.4,0.4,1.1,0,1.6l-3.5,3.6v0.3h5c0.6,0,1.1,0.5,1.1,1.1c0,0.6-0.5,1.1-1.1,1.1h-5v2.6L27.7,24.4
		L27.7,24.4z M21.6,0C13.9,0,7.1,3.8,2.8,9.6L1.4,8.8l0,0C1,8.5,0.4,8.7,0.1,9.1C0.1,9.3,0,9.4,0,9.6l0,0l0.5,5.3l0,0
		c0,0.3,0.2,0.6,0.5,0.8c0.3,0.2,0.6,0.2,0.9,0l0,0l4.7-2.2l0,0c0.2-0.1,0.3-0.2,0.4-0.4c0.3-0.4,0.1-1-0.3-1.3l0,0l-1.4-0.8
		C9.1,6.1,15,2.9,21.6,2.9c11.3,0,20.4,9.2,20.4,20.6c0,11.4-9.1,20.6-20.4,20.6c-7.8,0-14.5-4.4-18-10.8L1,34.5
		C4.9,41.9,12.7,47,21.6,47C34.5,47,45,36.5,45,23.5C45,10.5,34.5,0,21.6,0L21.6,0z M21.6,0"/>
</g>
</svg>
