<?xml version="1.0" encoding="utf-8"?>
<!-- Generator: Adobe Illustrator 21.0.0, SVG Export Plug-In . SVG Version: 6.00 Build 0)  -->
<svg version="1.1" id="图层_1" xmlns="http://www.w3.org/2000/svg" xmlns:xlink="http://www.w3.org/1999/xlink" x="0px" y="0px"
	 viewBox="0 0 36 36" style="enable-background:new 0 0 36 36;" xml:space="preserve">
<style type="text/css">
	.st0{clip-path:url(#SVGID_2_);}
</style>
<g>
	<g>
		<defs>
			<rect id="SVGID_1_" width="36" height="36"/>
		</defs>
		<clipPath id="SVGID_2_">
			<use xlink:href="#SVGID_1_"  style="overflow:visible;"/>
		</clipPath>
		<path class="st0" d="M35.5,33.1l-6.7-6.6c5.6-6.3,5.3-15.9-0.8-21.8c-6.5-6.3-16.7-6.3-23.2,0C1.7,7.7,0,11.8,0,16
			s1.7,8.4,4.8,11.3c5.9,5.6,15,6.2,21.5,1.4l6.8,6.6c0.3,0.3,0.7,0.5,1.2,0.6c0.5,0,0.9-0.2,1.2-0.5c0.3-0.3,0.5-0.7,0.5-1.2
			C36,33.8,35.8,33.4,35.5,33.1L35.5,33.1z M3.5,16c0.1-7,5.9-12.6,13-12.6C23.5,3.4,29.2,9,29.4,16c-0.1,7-5.9,12.6-12.9,12.6
			C9.4,28.7,3.6,23.1,3.5,16L3.5,16z M3.5,16"/>
	</g>
</g>
</svg>
