<?xml version="1.0" encoding="utf-8"?>
<!-- Generator: Adobe Illustrator 21.0.0, SVG Export Plug-In . SVG Version: 6.00 Build 0)  -->
<svg version="1.1" id="图层_1" xmlns="http://www.w3.org/2000/svg" xmlns:xlink="http://www.w3.org/1999/xlink" x="0px" y="0px"
	 viewBox="0 0 36 33" style="enable-background:new 0 0 36 33;" xml:space="preserve">
<style type="text/css">
	.st0{clip-path:url(#SVGID_2_);}
</style>
<g>
	<g>
		<defs>
			<rect id="SVGID_1_" y="0" width="36" height="33"/>
		</defs>
		<clipPath id="SVGID_2_">
			<use xlink:href="#SVGID_1_"  style="overflow:visible;"/>
		</clipPath>
		<path class="st0" d="M36,17c0-0.7-0.6-1.3-1.3-1.3s-1.3,0.6-1.3,1.3v12.1c0,0.7-0.6,1.3-1.3,1.3H3.8c-0.7,0-1.3-0.6-1.3-1.3V8
			c0-0.7,0.6-1.3,1.3-1.3h9c0.7,0,1.3-0.6,1.3-1.3c0-0.7-0.6-1.3-1.3-1.3c0,0-0.1,0-0.1,0H3.9C1.7,4.2,0,5.9,0,8v21.1
			C0,31.2,1.7,33,3.9,33h28.3c2.1,0,3.9-1.7,3.9-3.9L36,17L36,17z M13.6,21.3c-0.1,0.2-0.1,0.3-0.1,0.5c0,0.7,0.6,1.3,1.3,1.3
			c0.6,0,1.1-0.5,1.2-1h0c1.5-7.7,7.8-13.6,15.6-14.5l-2.7,2.7c-0.5,0.5-0.5,1.3,0,1.8c0.5,0.5,1.3,0.5,1.8,0l4.9-5
			c0.5-0.5,0.5-1.3,0-1.8l-4.9-5c-0.5-0.5-1.3-0.5-1.8,0c-0.5,0.5-0.5,1.3,0,1.8L31.6,5C22.6,5.9,15.4,12.6,13.6,21.3L13.6,21.3z
			 M13.6,21.3"/>
	</g>
</g>
</svg>
