<?xml version="1.0" encoding="utf-8"?>
<!-- Generator: Adobe Illustrator 21.0.0, SVG Export Plug-In . SVG Version: 6.00 Build 0)  -->
<svg version="1.1" id="图层_1" xmlns="http://www.w3.org/2000/svg" xmlns:xlink="http://www.w3.org/1999/xlink" x="0px" y="0px"
	 viewBox="0 0 37 35" style="enable-background:new 0 0 37 35;" xml:space="preserve">
<style type="text/css">
	.st0{clip-path:url(#SVGID_2_);}
</style>
<g>
	<g>
		<defs>
			<rect id="SVGID_1_" width="37" height="35"/>
		</defs>
		<clipPath id="SVGID_2_">
			<use xlink:href="#SVGID_1_"  style="overflow:visible;"/>
		</clipPath>
		<path class="st0" d="M8.5,16.1H6.3v16.7h2.2V16.1z M19.9,0c1,0,1.9,0.3,2.7,0.9c0.8,0.6,1.3,1.4,1.5,2.4L24.3,4
			c0.2,0.9,0.2,1.9,0.2,2.8c0,1.8-0.3,3.5-0.9,5.2l-0.1,0.3l9.4,0c0.7,0,1.3,0.2,2,0.6c0.6,0.4,1.1,0.8,1.5,1.5
			c0.2,0.4,0.4,0.8,0.5,1.2C37,16.1,37,16.5,37,17l0,0.4c0,0-0.1,0.6-0.3,1.9c-0.3,1.5-0.5,2.9-0.8,4.3c-0.9,4.3-1.6,7.2-2.3,8.7
			l-0.3,0.5c-0.1,0.3-0.3,0.5-0.6,0.8c-0.3,0.3-0.5,0.5-0.9,0.7c-0.6,0.4-1.3,0.6-2,0.7l-28.3,0c-0.4,0-0.8-0.1-1.1-0.4
			C0.1,34.3,0,34,0,33.7l0-18.5c0-0.4,0.1-0.7,0.4-0.9C0.7,14,1,13.9,1.3,13.9l6.7,0c0.5,0,1.2-0.3,2-0.8c0.9-0.5,1.7-1.2,2.5-2.1
			c0.9-0.9,1.6-1.9,2.1-3c0.6-1.2,0.9-2.3,1-3.4c0-0.1,0-0.2,0-0.4c0-1.2,0.4-2.2,1.3-3C17.7,0.4,18.7,0,19.9,0L19.9,0z M19.9,0"/>
	</g>
</g>
</svg>
