<?xml version="1.0" encoding="utf-8"?>
<!-- Generator: Adobe Illustrator 21.0.0, SVG Export Plug-In . SVG Version: 6.00 Build 0)  -->
<svg version="1.1" id="图层_1" xmlns="http://www.w3.org/2000/svg" xmlns:xlink="http://www.w3.org/1999/xlink" x="0px" y="0px"
	 viewBox="0 0 43 43" style="enable-background:new 0 0 43 43;" xml:space="preserve">
<g>
	<path d="M42.9,35.3c-0.1-0.7-0.2-1.2-0.3-1.7c-0.3-0.7-0.7-1.3-1.3-1.8c-0.6-0.5-1.3-0.9-2.1-1.2c-0.8-0.3-1.6-0.6-2.5-0.8
		c-0.9-0.2-1.6-0.5-2.3-0.8c-0.8-0.3-1.4-0.7-1.9-1.1c-0.5-0.4-0.8-0.8-1-1.3c-0.2-0.4-0.3-0.9-0.3-1.3c0-0.5,0-0.9,0.1-1.3
		c0.1-0.3,0.2-0.6,0.3-0.9c0.1-0.2,0.3-0.4,0.4-0.6c0.2-0.2,0.4-0.4,0.6-0.5c0.2-0.2,0.5-0.4,0.7-0.6c0.2-0.2,0.5-0.4,0.7-0.8
		c0.2-0.4,0.4-0.7,0.5-1.1c0.1-0.4,0.3-0.9,0.4-1.4c0.3-0.1,0.6-0.2,0.8-0.5c0.2-0.2,0.4-0.5,0.6-0.9c0.2-0.4,0.3-0.9,0.4-1.5
		c0.1-0.5,0.1-0.9,0-1.2c-0.1-0.3-0.2-0.6-0.3-0.8c-0.1-0.2-0.3-0.4-0.5-0.6c0-1.1,0-2.3-0.2-3.4c-0.2-1-0.4-2-0.8-3.1
		c-0.4-1.1-0.9-2.1-1.6-3c-0.6-0.8-1.6-1.6-3-2.3C28.9,0.4,27.4,0,25.7,0c-0.6,0-1.3,0.1-2,0.2c-0.7,0.1-1.4,0.3-2.1,0.6
		c-0.7,0.3-1.4,0.7-2.1,1.2c-0.7,0.5-1.3,1.2-1.8,2c-0.6,0.9-1,1.8-1.3,2.8c-0.3,1-0.5,2-0.6,2.9c-0.1,1.1-0.2,2.2-0.2,3.3
		c-0.2,0.3-0.4,0.6-0.6,0.9c-0.1,0.3-0.2,0.6-0.3,1c0,0.4,0,0.9,0.2,1.3c0.2,0.5,0.3,0.8,0.5,1.1c0.2,0.3,0.4,0.5,0.5,0.6
		c0.2,0.1,0.4,0.2,0.6,0.3c0.1,0.5,0.3,1,0.4,1.4c0.1,0.4,0.3,0.7,0.5,1.1c0.2,0.4,0.4,0.7,0.6,0.9c0.5,0.4,0.9,0.7,1.3,1.1
		c0.4,0.4,0.6,0.9,0.7,1.6c0,0.5,0.1,0.9,0.1,1.3c0,0.4-0.1,0.7-0.2,1.1c-0.2,0.3-0.4,0.7-0.7,1c-0.3,0.3-0.8,0.7-1.4,1.1
		c-0.8,0.5-1.6,0.9-2.6,1.1s-2,0.5-2.9,0.9c-0.9,0.3-1.8,0.8-2.4,1.3c-0.7,0.5-1.1,1.3-1.3,2.4c-0.3,1.8-0.3,3.4-0.2,4.5
		c0.2,1.2,0.4,1.9,0.7,2.1c0.2,0.1,0.6,0.3,1.2,0.4c0.7,0.2,1.5,0.3,2.4,0.5c1,0.2,2,0.3,3.1,0.4c1.1,0.1,2.3,0.2,3.5,0.3
		c1.2,0.1,2.3,0.2,3.4,0.3c1.1,0.1,2.1,0.1,2.9,0.1c0.8,0,1.8,0,2.9-0.1c1.1-0.1,2.3-0.2,3.4-0.3c1.2-0.1,2.4-0.2,3.5-0.4
		c1.2-0.2,2.2-0.3,3.2-0.5c1-0.2,1.8-0.4,2.4-0.6c0.7-0.2,1-0.4,1.2-0.6c0.2-0.3,0.4-0.8,0.5-1.4c0.1-0.6,0.2-1.2,0.2-1.9
		C43,36.7,43,36,42.9,35.3z"/>
	<path d="M9.8,28.1v-4h3.9c1,0,1.9-0.8,1.9-1.9v0c0-1-0.8-1.9-1.9-1.9H9.8v-4c0-1-0.8-1.9-1.9-1.9c-1,0-1.9,0.8-1.9,1.9v4H1.9
		c-1,0-1.9,0.8-1.9,1.9v0c0,1,0.8,1.9,1.9,1.9H6v4c0,1,0.8,1.9,1.9,1.9C8.9,30,9.8,29.2,9.8,28.1z"/>
</g>
</svg>
