<?xml version="1.0" encoding="utf-8"?>
<!-- Generator: Adobe Illustrator 21.0.0, SVG Export Plug-In . SVG Version: 6.00 Build 0)  -->
<svg version="1.1" id="图层_1" xmlns="http://www.w3.org/2000/svg" xmlns:xlink="http://www.w3.org/1999/xlink" x="0px" y="0px"
	 viewBox="0 0 35 43" style="enable-background:new 0 0 35 43;" xml:space="preserve">
<style type="text/css">
	.st0{clip-path:url(#SVGID_2_);}
</style>
<g>
	<defs>
		<polyline id="SVGID_1_" points="-3.5,-20 48,-20 48,30.8 -3.5,30.8 		"/>
	</defs>
	<clipPath id="SVGID_2_">
		<use xlink:href="#SVGID_1_"  style="display:none;overflow:visible;"/>
	</clipPath>
	<path class="st0" d="M34.9,35.3c-0.1-0.7-0.2-1.2-0.3-1.7c-0.3-0.7-0.7-1.3-1.4-1.8c-0.6-0.5-1.3-0.9-2.1-1.2s-1.6-0.6-2.5-0.8
		c-0.9-0.2-1.7-0.5-2.4-0.8c-0.8-0.3-1.5-0.7-1.9-1.1c-0.5-0.4-0.8-0.8-1-1.3c-0.2-0.4-0.3-0.9-0.3-1.3c0-0.5,0-0.9,0.1-1.3
		c0.1-0.3,0.2-0.6,0.3-0.9c0.1-0.2,0.3-0.4,0.4-0.6c0.2-0.2,0.4-0.4,0.6-0.5c0.2-0.2,0.5-0.4,0.7-0.6c0.2-0.2,0.5-0.4,0.7-0.8
		c0.2-0.4,0.4-0.7,0.5-1.1c0.1-0.4,0.3-0.9,0.4-1.4c0.3-0.1,0.6-0.2,0.8-0.5c0.2-0.2,0.4-0.5,0.6-0.9c0.2-0.4,0.3-0.9,0.4-1.5
		c0.1-0.5,0.1-0.9,0-1.2c-0.1-0.3-0.2-0.6-0.3-0.8c-0.1-0.2-0.3-0.4-0.5-0.6c0-1.1,0-2.3-0.2-3.4c-0.2-1-0.4-2-0.8-3.1
		c-0.4-1.1-0.9-2.1-1.7-3c-0.6-0.8-1.6-1.6-3-2.3C20.8,0.4,19.2,0,17.5,0c-0.6,0-1.3,0.1-2,0.2c-0.7,0.1-1.4,0.3-2.1,0.6
		c-0.7,0.3-1.4,0.7-2.1,1.2c-0.7,0.5-1.3,1.2-1.8,2C8.7,4.8,8.3,5.7,8,6.7c-0.3,1-0.5,2-0.6,2.9c-0.1,1.1-0.2,2.2-0.2,3.3
		c-0.2,0.3-0.4,0.6-0.6,0.9c-0.1,0.3-0.2,0.6-0.3,1c0,0.4,0,0.9,0.2,1.3C6.8,16.7,7,17,7.1,17.3c0.2,0.3,0.4,0.5,0.5,0.6
		c0.2,0.1,0.4,0.2,0.6,0.3c0.1,0.5,0.3,1,0.4,1.4c0.1,0.4,0.3,0.7,0.5,1.1c0.2,0.4,0.4,0.7,0.6,0.9c0.5,0.4,0.9,0.7,1.3,1.1
		c0.4,0.4,0.6,0.9,0.7,1.6c0,0.5,0.1,0.9,0.1,1.3c0,0.4-0.1,0.7-0.2,1.1c-0.2,0.3-0.4,0.7-0.7,1c-0.3,0.3-0.8,0.7-1.4,1.1
		c-0.8,0.5-1.7,0.9-2.7,1.1s-2,0.5-2.9,0.9C3,31,2.2,31.4,1.5,32c-0.7,0.5-1.1,1.3-1.3,2.4c-0.3,1.8-0.3,3.3-0.2,4.5
		c0.2,1.2,0.4,1.9,0.7,2.1c0.2,0.1,0.6,0.3,1.2,0.4c0.7,0.2,1.5,0.3,2.4,0.5c1,0.2,2,0.3,3.2,0.4c1.2,0.1,2.3,0.2,3.5,0.3
		c1.2,0.1,2.3,0.2,3.4,0.3c1.1,0.1,2.1,0.1,2.9,0.1c0.9,0,1.8,0,3-0.1c1.1-0.1,2.3-0.2,3.5-0.3c1.2-0.1,2.4-0.2,3.6-0.4
		c1.2-0.2,2.3-0.3,3.3-0.5c1-0.2,1.8-0.4,2.5-0.6c0.7-0.2,1.1-0.4,1.2-0.6c0.2-0.3,0.4-0.8,0.5-1.4c0.1-0.6,0.2-1.2,0.2-1.9
		S35,36,34.9,35.3z"/>
</g>
</svg>
