<?xml version="1.0" encoding="utf-8"?>
<!-- Generator: Adobe Illustrator 21.0.0, SVG Export Plug-In . SVG Version: 6.00 Build 0)  -->
<svg version="1.1" id="图层_1" xmlns="http://www.w3.org/2000/svg" xmlns:xlink="http://www.w3.org/1999/xlink" x="0px" y="0px"
	 viewBox="0 0 41 42" style="enable-background:new 0 0 41 42;" xml:space="preserve">
<style type="text/css">
	.st0{clip-path:url(#SVGID_2_);}
</style>
<g>
	<g>
		<defs>
			<rect id="SVGID_1_" width="41" height="42"/>
		</defs>
		<clipPath id="SVGID_2_">
			<use xlink:href="#SVGID_1_"  style="overflow:visible;"/>
		</clipPath>
		<path class="st0" d="M19,26.5c-0.1,0.3-0.1,0.5-0.2,0.7c-0.1,0.2-0.3,0.3-0.6,0.5c-0.7,0.4-1.5,0.8-2.3,1.1
			c-0.8,0.3-1.6,0.6-2.3,0.9c-0.7,0.3-1.4,0.8-1.9,1.3c-0.6,0.5-0.9,1.3-1,2.3c-0.1,0.3-0.1,0.6-0.1,0.9c0,0.3,0,0.6-0.1,0.8
			c0,0.1-0.1,0.1-0.1,0.1c0,0-0.1,0.1-0.1,0.1c-1.1-0.1-2.1-0.2-3.2-0.3C6,35,5,34.9,4.1,34.7c-0.9-0.1-1.7-0.3-2.3-0.4
			c-0.6-0.1-1-0.3-1.2-0.4c-0.2-0.2-0.4-0.8-0.5-1.7c-0.1-1-0.1-2.2,0.1-3.8c0.1-0.9,0.5-1.5,1-2c0.6-0.5,1.2-0.8,2-1.1
			c0.8-0.3,1.5-0.5,2.3-0.7c0.8-0.2,1.5-0.5,2.1-0.9c0.5-0.3,0.9-0.6,1.1-0.9c0.3-0.3,0.4-0.6,0.5-0.9c0.1-0.3,0.2-0.6,0.2-0.9
			c0-0.3,0-0.6,0-1c-0.1-0.6-0.2-1-0.5-1.3c-0.3-0.3-0.7-0.6-1-1c-0.2-0.1-0.4-0.4-0.5-0.7c-0.1-0.3-0.3-0.6-0.4-0.9
			c-0.1-0.3-0.2-0.7-0.3-1.1c-0.2-0.1-0.3-0.1-0.5-0.2c-0.1-0.1-0.3-0.3-0.4-0.5c-0.1-0.2-0.3-0.5-0.4-0.9c-0.1-0.4-0.2-0.8-0.2-1.1
			c0-0.3,0.1-0.6,0.2-0.9c0.1-0.3,0.3-0.6,0.4-0.7c0-0.9,0-1.8,0.1-2.7C6,7.2,6.2,6.4,6.4,5.5C6.7,4.7,7,3.9,7.5,3.2
			C8,2.6,8.4,2,9,1.6c0.5-0.4,1.1-0.7,1.6-1c0.6-0.2,1.1-0.4,1.7-0.5C12.9,0.1,13.4,0,14,0c1.4,0,2.6,0.3,3.7,0.9
			c1.1,0.6,1.9,1.2,2.4,1.9c0.4,0.5,0.6,0.9,0.7,1.3c0.1,0.4,0.2,0.9,0.4,1.4c-0.5,0.3-1.1,0.8-1.6,1.3C18.9,7.4,18.4,8,18,8.6
			c-0.5,0.8-0.9,1.6-1.2,2.6c-0.3,0.9-0.5,1.8-0.6,2.6c-0.1,1-0.2,1.9-0.2,2.9c-0.2,0.2-0.4,0.5-0.5,0.8c-0.1,0.3-0.2,0.6-0.2,1
			c0,0.4,0,0.8,0.2,1.2c0.1,0.5,0.3,0.8,0.4,1.1c0.2,0.2,0.3,0.4,0.4,0.6c0.2,0.2,0.3,0.3,0.5,0.3c0.1,0.4,0.2,0.9,0.3,1.2
			c0.1,0.3,0.2,0.7,0.4,1c0.1,0.3,0.3,0.6,0.5,0.8c0.2,0.2,0.3,0.3,0.4,0.4c0.1,0.1,0.2,0.2,0.3,0.3c0.1,0.1,0.1,0.2,0.1,0.4
			C18.9,26.1,18.9,26.3,19,26.5L19,26.5z M40.6,34.2c0.1,0.4,0.2,0.9,0.3,1.4c0.1,0.6,0.1,1.1,0.1,1.7c0,0.6,0,1.1-0.1,1.6
			c-0.1,0.5-0.2,0.9-0.4,1.1c-0.1,0.2-0.4,0.3-1,0.5c-0.5,0.2-1.2,0.3-2,0.5c-0.8,0.1-1.7,0.3-2.6,0.4c-0.9,0.1-1.9,0.2-2.9,0.3
			c-1,0.1-1.9,0.2-2.8,0.2c-0.9,0.1-1.7,0.1-2.4,0.1c-0.7,0-1.5,0-2.3-0.1c-0.9-0.1-1.8-0.1-2.7-0.2c-0.9-0.1-1.9-0.2-2.8-0.3
			c-0.9-0.1-1.8-0.2-2.5-0.3c-0.8-0.1-1.4-0.2-1.9-0.4c-0.5-0.1-0.9-0.2-1-0.4c-0.2-0.2-0.4-0.8-0.5-1.7c-0.1-1-0.1-2.2,0.1-3.7
			c0.1-0.9,0.5-1.5,1-2c0.6-0.4,1.2-0.8,2-1.1c0.8-0.3,1.5-0.5,2.3-0.7c0.8-0.2,1.5-0.5,2.1-0.9c0.5-0.3,0.9-0.6,1.1-0.9
			c0.3-0.3,0.4-0.6,0.6-0.8c0.1-0.3,0.2-0.6,0.2-0.9c0-0.3,0-0.7,0-1c-0.1-0.6-0.2-1-0.6-1.3c-0.3-0.3-0.7-0.6-1.1-0.9
			c-0.2-0.2-0.4-0.4-0.5-0.7c-0.1-0.3-0.3-0.6-0.4-0.9c-0.1-0.3-0.2-0.7-0.3-1.1c-0.2-0.1-0.3-0.1-0.5-0.2c-0.1-0.1-0.3-0.3-0.4-0.5
			c-0.1-0.2-0.3-0.5-0.4-0.9c-0.1-0.4-0.2-0.8-0.2-1.1c0-0.3,0.1-0.6,0.2-0.9c0.1-0.3,0.3-0.5,0.4-0.7c0-0.9,0-1.8,0.1-2.7
			c0.1-0.8,0.3-1.6,0.5-2.4s0.6-1.6,1.1-2.3C20.9,9,21.4,8.5,22,8c0.5-0.4,1.1-0.7,1.7-1c0.6-0.2,1.1-0.4,1.7-0.5
			c0.6-0.1,1.1-0.1,1.6-0.1c1.4,0,2.6,0.3,3.7,0.9c1.1,0.6,1.9,1.2,2.4,1.9c0.6,0.7,1,1.6,1.3,2.5c0.3,0.9,0.5,1.8,0.6,2.6
			c0.1,0.9,0.2,1.9,0.2,2.8c0.1,0.1,0.3,0.3,0.4,0.5c0.1,0.2,0.2,0.4,0.2,0.6c0.1,0.3,0.1,0.6,0,1c-0.1,0.5-0.2,0.9-0.3,1.2
			c-0.2,0.3-0.3,0.5-0.5,0.7c-0.2,0.2-0.4,0.3-0.6,0.4c-0.1,0.4-0.2,0.8-0.3,1.1c-0.1,0.3-0.2,0.6-0.4,0.9c-0.2,0.3-0.3,0.5-0.5,0.7
			c-0.2,0.2-0.4,0.4-0.6,0.5c-0.2,0.1-0.3,0.3-0.5,0.4c-0.1,0.2-0.3,0.3-0.3,0.5c-0.1,0.2-0.2,0.4-0.2,0.7c-0.1,0.4-0.1,0.7-0.1,1.1
			c0,0.4,0.1,0.7,0.3,1.1c0.2,0.4,0.4,0.7,0.8,1c0.4,0.3,0.9,0.6,1.5,0.9c0.6,0.2,1.2,0.5,1.9,0.6c0.7,0.2,1.4,0.4,2,0.6
			c0.6,0.2,1.2,0.6,1.7,1C40,33.1,40.4,33.6,40.6,34.2L40.6,34.2z M40.6,34.2"/>
	</g>
</g>
</svg>
